<svg xmlns="http://www.w3.org/2000/svg" xmlns:xlink="http://www.w3.org/1999/xlink" width="500" zoomAndPan="magnify" viewBox="0 0 375 374.999991" height="500" preserveAspectRatio="xMidYMid meet" version="1.0"><path stroke-linecap="round" transform="matrix(0.318869, 0, 0, 0.31875, 208.922921, 233.565381)" fill-opacity="1" fill="#ffffff" fill-rule="nonzero" stroke-linejoin="round" d="M 144.50144 34.365965 C 144.50144 34.365965 144.50144 -34.35953 144.50144 -34.35953 C 144.50144 -34.35953 108.02 -34.35953 108.02 -34.35953 C 106.0722 -40.511491 103.597637 -46.430609 100.669811 -52.080119 C 100.669811 -52.080119 126.481226 -77.888944 126.481226 -77.888944 C 126.481226 -77.888944 77.884225 -126.467379 77.884225 -126.467379 C 77.884225 -126.467379 52.08506 -100.670809 52.08506 -100.670809 C 46.437665 -103.611985 40.508512 -106.075221 34.358854 -108.02375 C 34.358854 -108.02375 34.358854 -144.506596 34.358854 -144.506596 C 34.358854 -144.506596 -34.353165 -144.506596 -34.353165 -144.506596 C -34.353165 -144.506596 -34.353165 -108.02375 -34.353165 -108.02375 C -40.515074 -106.075221 -46.431976 -103.611985 -52.079372 -100.670809 C -52.079372 -100.670809 -77.890786 -126.467379 -77.890786 -126.467379 C -77.890786 -126.467379 -126.475537 -77.888944 -126.475537 -77.888944 C -126.475537 -77.888944 -100.676373 -52.080119 -100.676373 -52.080119 C -103.604198 -46.430609 -106.066512 -40.511491 -108.026562 -34.35953 C -108.026562 -34.35953 -144.495751 -34.35953 -144.495751 -34.35953 C -144.495751 -34.35953 -144.495751 34.365965 -144.495751 34.365965 C -144.495751 34.365965 -108.026562 34.365965 -108.026562 34.365965 C -106.066512 40.505671 -103.616449 46.437044 -100.676373 52.074299 C -100.676373 52.074299 -126.475537 77.883125 -126.475537 77.883125 C -126.475537 77.883125 -77.890786 126.473814 -77.890786 126.473814 C -77.890786 126.473814 -52.079372 100.664989 -52.079372 100.664989 C -46.431976 103.606166 -40.515074 106.081656 -34.353165 108.030185 C -34.353165 108.030185 -34.353165 144.500776 -34.353165 144.500776 C -34.353165 144.500776 34.358854 144.500776 34.358854 144.500776 C 34.358854 144.500776 34.358854 108.030185 34.358854 108.030185 C 40.508512 106.081656 46.437665 103.606166 52.08506 100.664989 C 52.08506 100.664989 77.884225 126.473814 77.884225 126.473814 C 77.884225 126.473814 126.481226 77.883125 126.481226 77.883125 C 126.481226 77.883125 100.669811 52.074299 100.669811 52.074299 C 103.609887 46.437044 106.0722 40.505671 108.02 34.365965 C 108.02 34.365965 144.50144 34.365965 144.50144 34.365965 Z M 51.30104 2.711551 C 50.676274 14.85616 45.812899 25.873317 38.193203 34.365965 C 36.980421 35.701749 35.694138 36.988514 34.358854 38.201749 C 25.869385 45.824299 14.844101 50.664986 2.704039 51.302241 C 1.809766 51.339005 0.915493 51.363515 -0.00328091 51.363515 C -0.909804 51.363515 -1.804077 51.339005 -2.710601 51.302241 C -14.838413 50.664986 -25.875947 45.824299 -34.353165 38.201749 C -35.7007 36.988514 -36.974733 35.701749 -38.187514 34.365965 C -45.819461 25.873317 -50.670585 14.85616 -51.307602 2.711551 C -51.344353 1.816943 -51.368853 0.922335 -51.368853 0.00321753 C -51.368853 -0.903645 -51.344353 -1.798253 -51.307602 -2.705116 C -50.670585 -14.86198 -45.819461 -25.879137 -38.187514 -34.35953 C -36.974733 -35.707569 -35.7007 -36.982079 -34.353165 -38.195314 C -25.875947 -45.830119 -14.838413 -50.670805 -2.710601 -51.295805 C -1.804077 -51.344825 -0.909804 -51.369335 -0.00328091 -51.369335 C 0.915493 -51.369335 1.809766 -51.344825 2.704039 -51.295805 C 14.844101 -50.670805 25.869385 -45.830119 34.358854 -38.195314 C 35.694138 -36.982079 36.980421 -35.707569 38.193203 -34.35953 C 45.812899 -25.879137 50.676274 -14.86198 51.30104 -2.705116 C 51.350041 -1.798253 51.374542 -0.903645 51.374542 0.00321753 C 51.374542 0.922335 51.350041 1.816943 51.30104 2.711551 Z M 51.30104 2.711551 " stroke="#253237" stroke-width="2" stroke-opacity="1" stroke-miterlimit="4"/><path stroke-linecap="round" transform="matrix(0.178309, 0.264256, -0.264355, 0.178243, 213.857729, 116.743204)" fill-opacity="1" fill="#ffffff" fill-rule="nonzero" stroke-linejoin="round" d="M 43.525666 10.349566 C 43.525666 10.349566 43.532096 -10.348046 43.532096 -10.348046 C 43.532096 -10.348046 32.541228 -10.358429 32.541228 -10.358429 C 31.952744 -12.203468 31.207629 -13.991615 30.329512 -15.692154 C 30.329512 -15.692154 38.10194 -23.467726 38.10194 -23.467726 C 38.10194 -23.467726 23.462827 -38.099984 23.462827 -38.099984 C 23.462827 -38.099984 15.690399 -30.324412 15.690399 -30.324412 C 13.982169 -31.21065 12.205205 -31.951154 10.342497 -32.542623 C 10.342497 -32.542623 10.349066 -43.531946 10.349066 -43.531946 C 10.349066 -43.531946 -10.348143 -43.528552 -10.348143 -43.528552 C -10.348143 -43.528552 -10.347862 -32.549384 -10.347862 -32.549384 C -12.209966 -31.958321 -13.987945 -31.207078 -15.688418 -30.329674 C -15.688418 -30.329674 -23.46778 -38.103711 -23.46778 -38.103711 C -23.46778 -38.103711 -38.10386 -23.461575 -38.10386 -23.461575 C -38.10386 -23.461575 -30.324498 -15.687537 -30.324498 -15.687537 C -31.210267 -13.979855 -31.950259 -12.203396 -32.544473 -10.358163 C -32.544473 -10.358163 -43.532032 -10.351538 -43.532032 -10.351538 C -43.532032 -10.351538 -43.528302 10.352927 -43.528302 10.352927 C -43.528302 10.352927 -32.540744 10.346301 -32.540744 10.346301 C -31.948951 12.20835 -31.213995 13.989643 -30.335878 15.690182 C -30.335878 15.690182 -38.108306 23.465755 -38.108306 23.465755 C -38.108306 23.465755 -23.469193 38.098012 -23.469193 38.098012 C -23.469193 38.098012 -15.686606 30.329293 -15.686606 30.329293 C -13.988535 31.208678 -12.201411 31.956036 -10.348863 32.540651 C -10.348863 32.540651 -10.345272 43.536827 -10.345272 43.536827 C -10.345272 43.536827 10.351937 43.533433 10.351937 43.533433 C 10.351937 43.533433 10.348346 32.537257 10.348346 32.537257 C 12.2036 31.956349 13.991739 31.211959 15.682052 30.327703 C 15.682052 30.327703 23.461414 38.10174 23.461414 38.10174 C 23.461414 38.10174 38.107653 23.466456 38.107653 23.466456 C 38.107653 23.466456 30.328292 15.692419 30.328292 15.692419 C 31.214061 13.984736 31.954053 12.208278 32.544957 10.346036 C 32.544957 10.346036 43.525666 10.349566 43.525666 10.349566 Z M 15.455967 0.814198 C 15.266898 4.469466 13.805081 7.798211 11.504469 10.35431 C 11.142097 10.760056 10.749247 11.145243 10.342927 11.506568 C 7.788783 13.802998 4.470966 15.25924 0.819887 15.456335 C 0.547957 15.465011 0.276028 15.473687 -0.00606176 15.47551 C -0.271141 15.474031 -0.54638 15.465698 -0.814769 15.447209 C -4.470616 15.256898 -7.790176 13.800983 -10.354282 11.509962 C -10.75336 11.137345 -11.145588 10.754572 -11.507105 10.348183 C -13.804744 7.7936 -15.262342 4.475743 -15.453882 0.814952 C -15.462654 0.543057 -15.478276 0.281318 -15.480197 -0.000732264 C -15.471959 -0.27593 -15.470571 -0.540972 -15.462333 -0.816169 C -15.266414 -4.481594 -13.801287 -7.79333 -11.500675 -10.349429 C -11.138304 -10.755174 -10.755613 -11.147214 -10.349293 -11.508539 C -7.795149 -13.804969 -4.477332 -15.261211 -0.816093 -15.451453 C -0.544164 -15.460129 -0.272234 -15.468806 -0.000304306 -15.477482 C 0.274935 -15.469149 0.540014 -15.46767 0.815254 -15.459337 C 4.471101 -15.269025 7.80082 -13.806258 10.347916 -11.511934 C 10.753845 -11.149472 11.139222 -10.756543 11.500739 -10.350155 C 13.798378 -7.795572 15.266136 -4.470861 15.457676 -0.81007 C 15.466447 -0.538176 15.475219 -0.266281 15.473831 -0.0012392 C 15.475753 0.280811 15.474365 0.545853 15.455967 0.814198 Z M 15.455967 0.814198 " stroke="#253237" stroke-width="2" stroke-opacity="1" stroke-miterlimit="4"/><path stroke-linecap="round" transform="matrix(-0.168975, 0.270315, -0.270417, -0.168912, 35.311628, 214.054716)" fill-opacity="1" fill="#ffffff" fill-rule="nonzero" stroke-linejoin="round" d="M 55.209142 13.124456 C 55.209142 13.124456 55.209532 -13.122911 55.209532 -13.122911 C 55.209532 -13.122911 41.26605 -13.120577 41.26605 -13.120577 C 40.51981 -15.471109 39.577418 -17.742408 38.464842 -19.892919 C 38.464842 -19.892919 48.318136 -29.747939 48.318136 -29.747939 C 48.318136 -29.747939 29.75421 -48.309712 29.75421 -48.309712 C 29.75421 -48.309712 19.900915 -38.454692 19.900915 -38.454692 C 17.741171 -39.575282 15.470977 -40.525738 13.126693 -41.270999 C 13.126693 -41.270999 13.118658 -55.205699 13.118658 -55.205699 C 13.118658 -55.205699 -13.122625 -55.203751 -13.122625 -55.203751 C -13.122625 -55.203751 -13.124982 -41.262556 -13.124982 -41.262556 C -15.482644 -40.526037 -17.737749 -39.579141 -19.899379 -38.459529 C -19.899379 -38.459529 -29.759193 -48.31828 -29.759193 -48.31828 C -29.759193 -48.31828 -48.319868 -29.757646 -48.319868 -29.757646 C -48.319868 -29.757646 -38.460055 -19.898895 -38.460055 -19.898895 C -39.581555 -17.739128 -40.522538 -15.475481 -41.26871 -13.131331 C -41.26871 -13.131331 -55.205701 -13.118608 -55.205701 -13.118608 C -55.205701 -13.118608 -55.206092 13.128758 -55.206092 13.128758 C -55.206092 13.128758 -41.262609 13.126424 -41.262609 13.126424 C -40.516369 15.476957 -39.58047 17.737867 -38.461401 19.898766 C -38.461401 19.898766 -48.314696 29.753786 -48.314696 29.753786 C -48.314696 29.753786 -29.750769 48.315559 -29.750769 48.315559 C -29.750769 48.315559 -19.897475 38.46054 -19.897475 38.46054 C -17.73773 39.581129 -15.474028 40.521196 -13.123253 41.276846 C -13.123253 41.276846 -13.12171 55.201158 -13.12171 55.201158 C -13.12171 55.201158 13.126065 55.209598 13.126065 55.209598 C 13.126065 55.209598 13.128423 41.268404 13.128423 41.268404 C 15.479593 40.521495 17.741189 39.584988 19.896328 38.454988 C 19.896328 38.454988 29.756142 48.313738 29.756142 48.313738 C 29.756142 48.313738 48.316817 29.753105 48.316817 29.753105 C 48.316817 29.753105 38.457003 19.894354 38.457003 19.894354 C 39.584995 17.744976 40.519487 15.47094 41.265659 13.12679 C 41.265659 13.12679 55.209142 13.124456 55.209142 13.124456 Z M 19.606102 1.035207 C 19.359395 5.681858 17.507387 9.88708 14.589252 13.126173 C 14.13191 13.643077 13.638209 14.124919 13.121132 14.592478 C 9.886155 17.509525 5.663011 19.353946 1.035034 19.602335 C 0.694725 19.61275 0.344023 19.629658 -0.00277843 19.629684 C -0.34958 19.62971 -0.69248 19.612853 -1.03538 19.595995 C -5.665825 19.354787 -9.881508 17.510992 -13.120151 14.594426 C -13.643477 14.126945 -14.135625 13.639981 -14.586202 13.127041 C -17.509131 9.883187 -19.356335 5.678239 -19.599306 1.034222 C -19.609608 0.693972 -19.61991 0.353722 -19.626311 -0.0034109 C -19.62622 -0.350155 -19.619637 -0.68651 -19.602662 -1.02936 C -19.355954 -5.67601 -17.503947 -9.881233 -14.592303 -13.130715 C -14.12847 -13.637229 -13.641261 -14.12946 -13.124184 -14.597019 C -9.882714 -17.503677 -5.666062 -19.358487 -1.031594 -19.596488 C -0.691284 -19.606902 -0.350975 -19.617317 -0.00417382 -19.617343 C 0.35302 -19.623862 0.689428 -19.617394 1.032328 -19.600537 C 5.662774 -19.359329 9.884948 -17.505145 13.123591 -14.588579 C 13.640426 -14.131486 14.122181 -13.638028 14.589642 -13.121193 C 17.50608 -9.887728 19.359775 -5.672391 19.596255 -1.038764 C 19.613049 -0.688125 19.62335 -0.347875 19.623259 -0.00113049 C 19.623168 0.345614 19.612685 0.698852 19.606102 1.035207 Z M 19.606102 1.035207 " stroke="#253237" stroke-width="2" stroke-opacity="1" stroke-miterlimit="4"/><path stroke-linecap="round" transform="matrix(0.318869, 0, 0, 0.31875, 271.597311, 78.147364)" fill-opacity="1" fill="#253237" fill-rule="nonzero" stroke-linejoin="round" d="M 116.146322 0.00336637 C 116.146322 64.145527 64.143733 116.14308 0.00108127 116.14308 C -64.14157 116.14308 -116.144159 64.145527 -116.144159 0.00336637 C -116.144159 -64.138795 -64.14157 -116.136347 0.00108127 -116.136347 C 64.143733 -116.136347 116.146322 -64.138795 116.146322 0.00336637 Z M 116.146322 0.00336637 " stroke="#253237" stroke-width="2" stroke-opacity="1" stroke-miterlimit="4"/><path stroke-linecap="round" transform="matrix(0.318869, 0, 0, 0.31875, 270.600191, 75.780641)" fill-opacity="1" fill="#ffffff" fill-rule="nonzero" stroke-linejoin="round" d="M 116.137292 0.00191177 C 116.137292 64.144073 64.146954 116.141625 0.00430198 116.141625 C -64.13835 116.141625 -116.140938 64.144073 -116.140938 0.00191177 C -116.140938 -64.140249 -64.13835 -116.137802 0.00430198 -116.137802 C 64.146954 -116.137802 116.137292 -64.140249 116.137292 0.00191177 Z M 116.137292 0.00191177 " stroke="#253237" stroke-width="2" stroke-opacity="1" stroke-miterlimit="4"/><path stroke-linecap="round" transform="matrix(0.318869, 0, 0, 0.31875, 270.600191, 75.780641)" fill-opacity="1" fill="#a4c2db" fill-rule="nonzero" stroke-linejoin="round" d="M 90.350378 0.00191177 C 90.350378 49.903876 49.899837 90.345055 0.00430198 90.345055 C -49.903483 90.345055 -90.354025 49.903876 -90.354025 0.00191177 C -90.354025 -49.900052 -49.903483 -90.353486 0.00430198 -90.353486 C 49.899837 -90.353486 90.350378 -49.900052 90.350378 0.00191177 Z M 90.350378 0.00191177 " stroke="#253237" stroke-width="2" stroke-opacity="1" stroke-miterlimit="4"/><path stroke-linecap="round" transform="matrix(0.318869, 0, 0, 0.31875, 270.600191, 75.780641)" fill-opacity="1" fill="#ffffff" fill-rule="nonzero" stroke-linejoin="round" d="M 63.571189 0.00191177 C 63.571189 35.112208 35.113706 63.568092 0.00430198 63.568092 C -35.105102 63.568092 -63.574835 35.112208 -63.574835 0.00191177 C -63.574835 -35.108385 -35.105102 -63.564269 0.00430198 -63.564269 C 35.113706 -63.564269 63.571189 -35.108385 63.571189 0.00191177 Z M 63.571189 0.00191177 " stroke="#253237" stroke-width="2" stroke-opacity="1" stroke-miterlimit="4"/><path stroke-linecap="round" transform="matrix(0.318869, 0, 0, 0.31875, 270.599898, 75.780641)" fill-opacity="1" fill="#a4c2db" fill-rule="nonzero" stroke-linejoin="round" d="M 33.546584 0.00191177 C 33.546584 18.51907 18.527697 33.543581 0.00522022 33.543581 C -18.529507 33.543581 -33.536143 18.51907 -33.536143 0.00191177 C -33.536143 -18.527501 -18.529507 -33.539757 0.00522022 -33.539757 C 18.527697 -33.539757 33.546584 -18.527501 33.546584 0.00191177 Z M 33.546584 0.00191177 " stroke="#253237" stroke-width="2" stroke-opacity="1" stroke-miterlimit="4"/><path stroke-linecap="round" transform="matrix(0.318869, 0, 0, 0.31875, 302.555697, 37.54499)" fill-opacity="1" fill="#a4c2db" fill-rule="nonzero" stroke-linejoin="round" d="M -10.366932 25.888268 C -10.366932 25.888268 -13.515263 1.108855 -13.515263 1.108855 C -13.515263 1.108855 11.708137 -25.888696 11.708137 -25.888696 C 11.708137 -25.888696 13.521184 0.851502 13.521184 0.851502 C 13.521184 0.851502 -10.366932 25.888268 -10.366932 25.888268 Z M -10.366932 25.888268 " stroke="#253237" stroke-width="2" stroke-opacity="1" stroke-miterlimit="4"/><path stroke-linecap="round" transform="matrix(0.318869, 0, 0, 0.31875, 308.34476, 43.216509)" fill-opacity="1" fill="#a4c2db" fill-rule="nonzero" stroke-linejoin="round" d="M 25.612241 -11.622873 C 25.612241 -11.622873 0.0335827 -13.706206 0.0335827 -13.706206 C 0.0335827 -13.706206 -25.618578 10.962913 -25.618578 10.962913 C -25.618578 10.962913 0.0335827 13.708011 0.0335827 13.708011 C 0.0335827 13.708011 25.612241 -11.622873 25.612241 -11.622873 Z M 25.612241 -11.622873 " stroke="#253237" stroke-width="2" stroke-opacity="1" stroke-miterlimit="4"/><path stroke-linecap="round" transform="matrix(0.318869, 0, 0, 0.31875, 289.608326, 56.290679)" fill-opacity="1" fill="#ffffff" fill-rule="nonzero" stroke-linejoin="round" d="M 57.91053 -63.11782 C 53.916927 -59.085957 49.923324 -55.041839 45.941972 -50.997721 C 36.362225 -41.291838 26.782478 -31.585955 17.202732 -21.880072 C 5.662935 -10.188895 -5.864612 1.502283 -17.404409 13.19346 C -27.425167 23.352774 -37.445925 33.499834 -47.478934 43.659148 C -52.342309 48.585619 -57.42619 53.377286 -62.118061 58.48758 C -62.179312 58.56111 -62.252814 58.634639 -62.326316 58.708169 C -65.156139 61.563561 -60.733775 65.987581 -57.903952 63.119934 C -53.9226 59.075816 -49.928997 55.043953 -45.935394 50.999835 C -36.367898 41.293952 -26.788151 31.588069 -17.208404 21.882186 C -5.668607 10.191009 5.87119 -1.500169 17.410987 -13.191346 C 27.431745 -23.35066 37.452503 -33.49772 47.473261 -43.657034 C 52.336636 -48.59576 57.432768 -53.387427 62.112388 -58.497721 C 62.18589 -58.558996 62.259392 -58.632525 62.320643 -58.706055 C 65.150466 -61.573702 60.740353 -65.985467 57.91053 -63.11782 Z M 57.91053 -63.11782 " stroke="#253237" stroke-width="2" stroke-opacity="1" stroke-miterlimit="4"/><path stroke-linecap="round" transform="matrix(0.277416, 0, 0, 0.277312, 151.732816, 72.754426)" fill-opacity="1" fill="#ffffff" fill-rule="nonzero" stroke-linejoin="round" d="M 12.875491 41.284474 C 12.875491 41.284474 -12.878333 41.284474 -12.878333 41.284474 C -12.878333 41.284474 -12.878333 -41.288219 -12.878333 -41.288219 C -12.878333 -41.288219 12.875491 -41.288219 12.875491 -41.288219 C 12.875491 -41.288219 12.875491 41.284474 12.875491 41.284474 Z M 12.875491 41.284474 " stroke="#253237" stroke-width="2" stroke-opacity="1" stroke-miterlimit="4"/><path stroke-linecap="round" transform="matrix(0.277416, 0, 0, 0.277312, 161.150545, 75.227501)" fill-opacity="1" fill="#a4c2db" fill-rule="nonzero" stroke-linejoin="round" d="M 12.876355 32.366465 C 12.876355 32.366465 -12.877469 32.366465 -12.877469 32.366465 C -12.877469 32.366465 -12.877469 -32.373231 -12.877469 -32.373231 C -12.877469 -32.373231 12.876355 -32.373231 12.876355 -32.373231 C 12.876355 -32.373231 12.876355 32.366465 12.876355 32.366465 Z M 12.876355 32.366465 " stroke="#253237" stroke-width="2" stroke-opacity="1" stroke-miterlimit="4"/><path stroke-linecap="round" transform="matrix(0.277416, 0, 0, 0.277312, 170.568274, 78.47927)" fill-opacity="1" fill="#ffffff" fill-rule="nonzero" stroke-linejoin="round" d="M 12.877219 20.640453 C 12.877219 20.640453 -12.876605 20.640453 -12.876605 20.640453 C -12.876605 20.640453 -12.876605 -20.645894 -12.876605 -20.645894 C -12.876605 -20.645894 12.877219 -20.645894 12.877219 -20.645894 C 12.877219 -20.645894 12.877219 20.640453 12.877219 20.640453 Z M 12.877219 20.640453 " stroke="#253237" stroke-width="2" stroke-opacity="1" stroke-miterlimit="4"/><path stroke-linecap="round" transform="matrix(0.318869, 0, 0, 0.31875, 225.668968, 184.21301)" fill-opacity="1" fill="#1e1e49" fill-rule="nonzero" stroke-linejoin="round" d="M -377.557855 111.733701 C -377.557855 111.733701 -152.127551 -127.445237 -152.127551 -127.445237 C -152.127551 -127.445237 123.872056 -27.763858 123.872056 -27.763858 C 123.872056 -27.763858 248.788522 -106.415824 248.788522 -106.415824 C 248.788522 -106.415824 208.693239 -131.268766 208.693239 -131.268766 C 208.693239 -131.268766 377.563837 -154.834944 377.563837 -154.834944 C 377.563837 -154.834944 276.915246 -9.589837 276.915246 -9.589837 C 276.915246 -9.589837 275.420708 -59.430526 275.420708 -59.430526 C 275.420708 -59.430526 133.488553 31.402813 133.488553 31.402813 C 133.488553 31.402813 -139.166717 -65.680527 -139.166717 -65.680527 C -139.166717 -65.680527 -342.815961 154.834194 -342.815961 154.834194 C -342.815961 154.834194 -377.557855 111.733701 -377.557855 111.733701 Z M -377.557855 111.733701 " stroke="#253237" stroke-width="2" stroke-opacity="1" stroke-miterlimit="4"/><path stroke-linecap="round" transform="matrix(0.318869, 0, 0, 0.31875, 201.400479, 269.01675)" fill-opacity="1" fill="#ffffff" fill-rule="nonzero" stroke-linejoin="round" d="M -462.664066 219.040602 C -462.664066 219.040602 -462.664066 52.827355 -462.664066 52.827355 C -462.664066 52.827355 -229.148553 52.827355 -229.148553 52.827355 C -229.148553 52.827355 -229.148553 -39.623631 -229.148553 -39.623631 C -229.148553 -39.623631 6.486264 -39.623631 6.486264 -39.623631 C 6.486264 -39.623631 6.486264 -136.486383 6.486264 -136.486383 C 6.486264 -136.486383 240.001776 -136.486383 240.001776 -136.486383 C 240.001776 -136.486383 240.001776 -219.035408 240.001776 -219.035408 C 240.001776 -219.035408 458.767909 -219.035408 458.767909 -219.035408 C 458.767909 -219.035408 462.66351 213.53815 462.66351 213.53815 C 462.66351 213.53815 -462.664066 219.040602 -462.664066 219.040602 Z M -462.664066 219.040602 " stroke="#253237" stroke-width="2" stroke-opacity="1" stroke-miterlimit="4"/><path stroke-linecap="round" transform="matrix(0.318869, 0, 0, 0.31875, 52.277082, 197.604654)" fill="none" stroke-linejoin="round" d="M 238.514462 276.865319 C 238.514462 276.865319 238.514462 441.607977 238.514462 441.607977 " stroke="#253237" stroke-width="2" stroke-opacity="1" stroke-miterlimit="4"/><path stroke-linecap="round" transform="matrix(0.318869, 0, 0, 0.31875, 52.277082, 197.604654)" fill="none" stroke-linejoin="round" d="M 474.14928 184.414332 C 474.14928 184.414332 474.14928 440.112878 474.14928 440.112878 " stroke="#253237" stroke-width="2" stroke-opacity="1" stroke-miterlimit="4"/><path stroke-linecap="round" transform="matrix(0.318869, 0, 0, 0.31875, 52.277082, 197.604654)" fill="none" stroke-linejoin="round" d="M 707.664792 87.551581 C 707.664792 87.551581 707.664792 438.61778 707.664792 438.61778 " stroke="#253237" stroke-width="2" stroke-opacity="1" stroke-miterlimit="4"/><path stroke-linecap="round" transform="matrix(0.318869, 0, 0, 0.31875, 209.705441, 279.626994)" fill-opacity="1" fill="#ffffff" fill-rule="nonzero" stroke-linejoin="round" d="M -462.664926 219.037877 C -462.664926 219.037877 -462.664926 52.836886 -462.664926 52.836886 C -462.664926 52.836886 -229.149413 52.836886 -229.149413 52.836886 C -229.149413 52.836886 -229.149413 -39.626355 -229.149413 -39.626355 C -229.149413 -39.626355 6.485404 -39.626355 6.485404 -39.626355 C 6.485404 -39.626355 6.485404 -136.489107 6.485404 -136.489107 C 6.485404 -136.489107 240.000916 -136.489107 240.000916 -136.489107 C 240.000916 -136.489107 240.000916 -219.038132 240.000916 -219.038132 C 240.000916 -219.038132 458.767049 -219.038132 458.767049 -219.038132 C 458.767049 -219.038132 462.662649 213.535426 462.662649 213.535426 C 462.662649 213.535426 -462.664926 219.037877 -462.664926 219.037877 Z M -462.664926 219.037877 " stroke="#253237" stroke-width="2" stroke-opacity="1" stroke-miterlimit="4"/><path stroke-linecap="round" transform="matrix(0.318869, 0, 0, 0.31875, 52.277082, 197.604654)" fill="none" stroke-linejoin="round" d="M 264.558633 310.161889 C 264.558633 310.161889 264.558633 474.892292 264.558633 474.892292 " stroke="#253237" stroke-width="2" stroke-opacity="1" stroke-miterlimit="4"/><path stroke-linecap="round" transform="matrix(0.318869, 0, 0, 0.31875, 52.277082, 197.604654)" fill="none" stroke-linejoin="round" d="M 500.19345 217.698648 C 500.19345 217.698648 500.19345 473.409449 500.19345 473.409449 " stroke="#253237" stroke-width="2" stroke-opacity="1" stroke-miterlimit="4"/><path stroke-linecap="round" transform="matrix(0.318869, 0, 0, 0.31875, 52.277082, 197.604654)" fill="none" stroke-linejoin="round" d="M 733.708963 120.835897 C 733.708963 120.835897 733.708963 471.902096 733.708963 471.902096 " stroke="#253237" stroke-width="2" stroke-opacity="1" stroke-miterlimit="4"/><path stroke-linecap="round" transform="matrix(0.318869, 0, 0, 0.31875, 95.254613, 291.16255)" fill-opacity="1" fill="#ffffff" fill-rule="nonzero" stroke-linejoin="round" d="M -129.782059 -16.637412 C -129.782059 -16.637412 -103.737889 16.646904 -103.737889 16.646904 C -103.737889 16.646904 129.777624 16.646904 129.777624 16.646904 C 129.777624 16.646904 103.733453 -16.637412 103.733453 -16.637412 C 103.733453 -16.637412 -129.782059 -16.637412 -129.782059 -16.637412 Z M -129.782059 -16.637412 " stroke="#253237" stroke-width="2" stroke-opacity="1" stroke-miterlimit="4"/><path stroke-linecap="round" transform="matrix(0.318869, 0, 0, 0.31875, 58.023747, 317.651317)" fill-opacity="1" fill="#ffffff" fill-rule="nonzero" stroke-linejoin="round" d="M -13.023056 66.46156 C -13.023056 66.46156 13.021114 99.745876 13.021114 99.745876 C 13.021114 99.745876 13.021114 -66.455116 13.021114 -66.455116 C 13.021114 -66.455116 -13.023056 -99.751687 -13.023056 -99.751687 C -13.023056 -99.751687 -13.023056 66.46156 -13.023056 66.46156 Z M -13.023056 66.46156 " stroke="#253237" stroke-width="2" stroke-opacity="1" stroke-miterlimit="4"/><path stroke-linecap="round" transform="matrix(0.318869, 0, 0, 0.31875, 170.053383, 261.691564)" fill-opacity="1" fill="#ffffff" fill-rule="nonzero" stroke-linejoin="round" d="M -130.841528 -16.642654 C -130.841528 -16.642654 -104.797357 16.641662 -104.797357 16.641662 C -104.797357 16.641662 130.83746 16.641662 130.83746 16.641662 C 130.83746 16.641662 104.793289 -16.642654 104.793289 -16.642654 C 104.793289 -16.642654 -130.841528 -16.642654 -130.841528 -16.642654 Z M -130.841528 -16.642654 " stroke="#253237" stroke-width="2" stroke-opacity="1" stroke-miterlimit="4"/><path stroke-linecap="round" transform="matrix(0.318869, 0, 0, 0.31875, 244.852181, 230.817114)" fill-opacity="1" fill="#ffffff" fill-rule="nonzero" stroke-linejoin="round" d="M -129.781782 -16.64438 C -129.781782 -16.64438 -103.737611 16.639936 -103.737611 16.639936 C -103.737611 16.639936 129.777901 16.639936 129.777901 16.639936 C 129.777901 16.639936 103.733731 -16.64438 103.733731 -16.64438 C 103.733731 -16.64438 -129.781782 -16.64438 -129.781782 -16.64438 Z M -129.781782 -16.64438 " stroke="#253237" stroke-width="2" stroke-opacity="1" stroke-miterlimit="4"/><path stroke-linecap="round" transform="matrix(0.318869, 0, 0, 0.31875, 316.96094, 204.503672)" fill-opacity="1" fill="#ffffff" fill-rule="nonzero" stroke-linejoin="round" d="M -122.405159 -16.641424 C -122.405159 -16.641424 -96.360988 16.642892 -96.360988 16.642892 C -96.360988 16.642892 122.405145 16.642892 122.405145 16.642892 C 122.405145 16.642892 96.360974 -16.641424 96.360974 -16.641424 C 96.360974 -16.641424 -122.405159 -16.641424 -122.405159 -16.641424 Z M -122.405159 -16.641424 " stroke="#253237" stroke-width="2" stroke-opacity="1" stroke-miterlimit="4"/><path stroke-linecap="round" transform="matrix(0.318869, 0, 0, 0.31875, 134.07439, 137.280577)" fill-opacity="1" fill="#a4c2db" fill-rule="nonzero" stroke-linejoin="round" d="M -46.833493 -21.370438 C -46.833493 -21.370438 9.015695 71.595255 9.015695 71.595255 C 23.446566 94.389374 60.49152 70.958 46.060649 48.151626 C 19.195707 -6.051809 -8.061245 -52.853283 -35.587704 -94.397403 C -50.827096 -72.865539 -60.492595 -58.196421 -46.833493 -21.370438 Z M -46.833493 -21.370438 " stroke="#253237" stroke-width="2" stroke-opacity="1" stroke-miterlimit="4"/><path stroke-linecap="round" transform="matrix(0.318869, 0, 0, 0.31875, 95.480674, 133.54291)" fill-opacity="1" fill="#a4c2db" fill-rule="nonzero" stroke-linejoin="round" d="M 85.947569 -82.671391 C 69.862904 -92.561098 54.121249 -101.164039 39.053361 -107.242471 C 39.053361 -107.242471 -31.67996 -113.002275 -31.67996 -113.002275 C -50.447443 -105.869922 -68.675913 -97.205706 -85.948857 -85.784136 C -85.948857 -85.784136 -49.773676 106.262445 -49.773676 106.262445 C -2.315954 112.585975 35.684524 113.002641 59.695143 104.669307 C 59.695143 104.669307 85.947569 -82.671391 85.947569 -82.671391 Z M 85.947569 -82.671391 " stroke="#253237" stroke-width="2" stroke-opacity="1" stroke-miterlimit="4"/><path stroke-linecap="butt" transform="matrix(0.318869, 0, 0, 0.31875, 95.845143, 95.605928)" fill-opacity="1" fill="#ffffff" fill-rule="nonzero" stroke-linejoin="miter" d="M -23.818982 -36.349483 C -23.818982 -36.349483 -21.552673 -3.506343 -21.552673 -3.506343 C -21.552673 -3.506343 11.106668 36.3466 11.106668 36.3466 C 11.106668 36.3466 23.822495 12.584344 23.822495 12.584344 C 23.822495 12.584344 23.822495 -19.106835 23.822495 -19.106835 C 23.822495 -19.106835 -23.818982 -36.349483 -23.818982 -36.349483 Z M -23.818982 -36.349483 " stroke="#253237" stroke-width="2" stroke-opacity="1" stroke-miterlimit="10"/><path stroke-linecap="round" transform="matrix(0.318869, 0, 0, 0.31875, 90.900445, 100.483762)" fill-opacity="1" fill="#a4c2db" fill-rule="nonzero" stroke-linejoin="round" d="M 26.61364 21.043591 C 26.61364 21.043591 9.720455 11.680845 9.720455 11.680845 C 9.720455 11.680845 0.275462 25.124473 0.275462 25.124473 C 0.275462 25.124473 -26.613981 -10.880431 -26.613981 -10.880431 C -26.613981 -10.880431 -13.322388 -25.132883 -13.322388 -25.132883 C -13.322388 -25.132883 -6.474462 -25.132883 -6.474462 -25.132883 C -6.474462 -25.132883 -6.045701 -18.809353 -6.045701 -18.809353 C -6.045701 -18.809353 26.61364 21.043591 26.61364 21.043591 Z M 26.61364 21.043591 " stroke="#253237" stroke-width="2" stroke-opacity="1" stroke-miterlimit="4"/><path stroke-linecap="round" transform="matrix(0.318869, 0, 0, 0.31875, 103.659043, 102.473393)" fill-opacity="1" fill="#a4c2db" fill-rule="nonzero" stroke-linejoin="round" d="M -13.398355 14.80161 C -13.398355 14.80161 -1.662553 7.362884 -1.662553 7.362884 C -1.662553 7.362884 11.322782 20.487885 11.322782 20.487885 C 11.322782 20.487885 13.405335 -9.757215 13.405335 -9.757215 C 13.405335 -9.757215 -0.682527 -20.480255 -0.682527 -20.480255 C -0.682527 -20.480255 -0.682527 -8.960646 -0.682527 -8.960646 C -0.682527 -8.960646 -13.398355 14.80161 -13.398355 14.80161 Z M -13.398355 14.80161 " stroke="#253237" stroke-width="2" stroke-opacity="1" stroke-miterlimit="4"/><path stroke-linecap="round" transform="matrix(0.318869, 0, 0, 0.31875, 98.678612, 108.608057)" fill-opacity="1" fill="#1e1e49" fill-rule="nonzero" stroke-linejoin="round" d="M 11.077659 -10.05714 C 12.069935 -1.172335 11.10216 6.327665 8.100833 12.369332 C 8.100833 12.369332 -6.072782 12.369332 -6.072782 12.369332 C -10.152137 6.082567 -11.646676 -2.630669 -12.075437 -12.361062 C -12.075437 -12.361062 2.208431 -4.444394 2.208431 -4.444394 C 2.208431 -4.444394 11.077659 -10.05714 11.077659 -10.05714 Z M 11.077659 -10.05714 " stroke="#253237" stroke-width="2" stroke-opacity="1" stroke-miterlimit="4"/><path stroke-linecap="round" transform="matrix(0.318869, 0, 0, 0.31875, 99.461446, 138.448805)" fill-opacity="1" fill="#1e1e49" fill-rule="nonzero" stroke-linejoin="round" d="M 5.645801 -81.260963 C 5.645801 -81.260963 16.328076 -14.508508 16.328076 -14.508508 C 13.37575 15.479239 7.654853 48.028261 1.198936 81.251302 C -6.151253 50.969438 -12.864426 19.339534 -16.319015 -19.079587 C -16.319015 -19.079587 -8.527814 -81.260963 -8.527814 -81.260963 C -8.527814 -81.260963 5.645801 -81.260963 5.645801 -81.260963 Z M 5.645801 -81.260963 " stroke="#253237" stroke-width="2" stroke-opacity="1" stroke-miterlimit="4"/><path stroke-linecap="round" transform="matrix(0.318869, 0, 0, 0.31875, 96.884338, 171.585092)" fill-opacity="1" fill="#253237" fill-rule="nonzero" stroke-linejoin="round" d="M 55.293139 -14.678721 C 55.293139 -14.678721 55.293139 4.451182 55.293139 4.451182 C 21.690524 14.684026 -15.574935 13.421771 -55.290458 4.451182 C -55.290458 4.451182 -54.175679 -13.073328 -54.175679 -13.073328 C -11.679335 -6.60274 25.451371 -6.382152 55.293139 -14.678721 Z M 55.293139 -14.678721 " stroke="#253237" stroke-width="2" stroke-opacity="1" stroke-miterlimit="4"/><path stroke-linecap="round" transform="matrix(0.318869, 0, 0, 0.31875, 96.628928, 184.212674)" fill-opacity="1" fill="#253237" fill-rule="nonzero" stroke-linejoin="round" d="M 56.094127 -35.17702 C 56.094127 -35.17702 61.704771 35.166122 61.704771 35.166122 C 61.704771 35.166122 -61.704906 35.166122 -61.704906 35.166122 C -61.704906 35.166122 -54.501721 -35.17702 -54.501721 -35.17702 C -54.501721 -35.17702 56.094127 -35.17702 56.094127 -35.17702 Z M 56.094127 -35.17702 " stroke="#253237" stroke-width="2" stroke-opacity="1" stroke-miterlimit="4"/><path stroke-linecap="round" transform="matrix(0.318869, 0, 0, 0.31875, 123.077545, 195.999112)" fill-opacity="1" fill="#253237" fill-rule="nonzero" stroke-linejoin="round" d="M -33.907055 -56.663884 C -33.907055 -56.663884 73.025948 10.358179 73.025948 10.358179 C 73.025948 10.358179 42.216405 56.657202 42.216405 56.657202 C 42.216405 56.657202 -73.022312 -8.306038 -73.022312 -8.306038 C -73.022312 -8.306038 -33.907055 -56.663884 -33.907055 -56.663884 Z M -33.907055 -56.663884 " stroke="#253237" stroke-width="2" stroke-opacity="1" stroke-miterlimit="4"/><path stroke-linecap="round" transform="matrix(0.318869, 0, 0, 0.31875, 143.476898, 231.028154)" fill-opacity="1" fill="#253237" fill-rule="nonzero" stroke-linejoin="round" d="M 23.250046 -79.328526 C 23.250046 -79.328526 33.822068 71.615111 33.822068 71.615111 C 21.657505 78.073445 5.217581 79.3357 -15.926463 74.86266 C -15.926463 74.86266 -33.824174 -76.326075 -33.824174 -76.326075 C -33.824174 -76.326075 23.250046 -79.328526 23.250046 -79.328526 Z M 23.250046 -79.328526 " stroke="#253237" stroke-width="2" stroke-opacity="1" stroke-miterlimit="4"/><path stroke-linecap="round" transform="matrix(0.318869, 0, 0, 0.31875, 85.886219, 213.2336)" fill-opacity="1" fill="#253237" fill-rule="nonzero" stroke-linejoin="round" d="M 38.247052 -60.352963 C 38.247052 -60.352963 15.522717 63.36028 15.522717 63.36028 C 15.522717 63.36028 -38.256167 58.397044 -38.256167 58.397044 C -38.256167 58.397044 -27.243134 -63.355415 -27.243134 -63.355415 C -27.243134 -63.355415 38.247052 -60.352963 38.247052 -60.352963 Z M 38.247052 -60.352963 " stroke="#253237" stroke-width="2" stroke-opacity="1" stroke-miterlimit="4"/><path stroke-linecap="round" transform="matrix(0.318869, 0, 0, 0.31875, 80.161238, 254.415775)" fill-opacity="1" fill="#253237" fill-rule="nonzero" stroke-linejoin="round" d="M 33.905482 -68.142633 C 33.905482 -68.142633 7.224295 72.923553 7.224295 72.923553 C -6.312304 74.308357 -20.044907 72.678455 -33.900014 68.756886 C -33.900014 68.756886 -19.983656 -74.306849 -19.983656 -74.306849 C -19.983656 -74.306849 33.905482 -68.142633 33.905482 -68.142633 Z M 33.905482 -68.142633 " stroke="#253237" stroke-width="2" stroke-opacity="1" stroke-miterlimit="4"/><path stroke-linecap="round" transform="matrix(0.318869, 0, 0, 0.31875, 153.272558, 256.003783)" fill-opacity="1" fill="#253237" fill-rule="nonzero" stroke-linejoin="round" d="M -10.385508 -24.276576 C -2.998568 -11.396673 10.844288 -3.945693 27.627221 1.042053 C 41.617081 6.250386 42.254097 12.292054 40.122542 18.505289 C 20.98755 24.13029 -3.415079 24.277348 -35.094394 16.887642 C -35.094394 16.887642 -42.248579 -18.173635 -42.248579 -18.173635 C -42.248579 -18.173635 -10.385508 -24.276576 -10.385508 -24.276576 Z M -10.385508 -24.276576 " stroke="#253237" stroke-width="2" stroke-opacity="1" stroke-miterlimit="4"/><path stroke-linecap="round" transform="matrix(0.318869, 0, 0, 0.31875, 63.850114, 137.751363)" fill-opacity="1" fill="#a4c2db" fill-rule="nonzero" stroke-linejoin="round" d="M 36.80449 -14.5631 C 36.80449 -14.5631 8.653266 73.132984 8.653266 73.132984 C -0.10571 98.659946 -41.573028 84.432004 -32.814052 58.905042 C -19.203952 -0.0410406 -3.511298 -51.879279 13.651394 -98.656243 C 33.460154 -81.242026 41.569863 -53.545946 36.80449 -14.5631 Z M 36.80449 -14.5631 " stroke="#253237" stroke-width="2" stroke-opacity="1" stroke-miterlimit="4"/><path stroke-linecap="round" transform="matrix(0.318869, 0, 0, 0.31875, 81.313314, 282.986612)" fill-opacity="1" fill="#253237" fill-rule="nonzero" stroke-linejoin="round" d="M -4.829178 -25.497215 C -0.847826 -11.918783 10.165208 -2.090351 24.363323 6.01014 C 35.976622 13.755238 35.266104 19.551807 32.032021 24.943965 C 13.460543 26.292004 -8.749279 21.439062 -35.96948 8.032199 C -35.96948 8.032199 -35.075207 -26.281529 -35.075207 -26.281529 C -35.075207 -26.281529 -4.829178 -25.497215 -4.829178 -25.497215 Z M -4.829178 -25.497215 " stroke="#253237" stroke-width="2" stroke-opacity="1" stroke-miterlimit="4"/><path stroke-linecap="round" transform="matrix(0.318869, 0, 0, 0.31875, 142.16251, 206.131218)" fill-opacity="1" fill="#253237" fill-rule="nonzero" stroke-linejoin="round" d="M 13.173959 -21.428822 C 20.511898 -17.360194 25.706032 -11.024409 27.372075 -1.220487 C 27.372075 -1.220487 -27.374585 21.426573 -27.374585 21.426573 C -27.374585 21.426573 13.173959 -21.428822 13.173959 -21.428822 Z M 13.173959 -21.428822 " stroke="#253237" stroke-width="2" stroke-opacity="1" stroke-miterlimit="4"/><path stroke-linecap="round" transform="matrix(0.318869, 0, 0, 0.31875, 95.845143, 90.111952)" fill-opacity="1" fill="#253237" fill-rule="nonzero" stroke-linejoin="round" d="M 24.092002 -6.601221 C 24.092002 -6.601221 24.092002 4.62427 24.092002 4.62427 C -0.298376 5.089956 -13.712472 3.190446 -22.838957 -13.598771 C -5.308755 -10.939457 7.982837 -6.343868 24.092002 -6.601221 Z M 24.092002 -6.601221 " stroke="#253237" stroke-width="2" stroke-opacity="1" stroke-miterlimit="4"/><path stroke-linecap="butt" transform="matrix(0.318869, 0, 0, 0.31875, 87.899881, 199.134011)" fill-opacity="1" fill="#ffffff" fill-rule="nonzero" stroke-linejoin="miter" d="M -2.185083 -30.591997 C 6.524891 -24.966997 14.303841 -17.454741 21.64178 -9.047878 C 22.634056 -7.908172 23.381325 -6.535623 23.638581 -5.05278 C 24.055092 -2.626309 23.124068 -0.898368 21.078265 0.265848 C 18.076938 1.957025 14.291591 1.29526 11.768026 -1.069936 C 11.768026 -1.069936 2.862046 -9.415525 2.862046 -9.415525 C 3.854322 -4.783172 5.520365 -0.506211 7.66417 3.537907 C 10.432741 8.746241 15.210364 12.606535 20.784258 14.5183 C 20.84551 14.530555 20.894511 14.555065 20.955762 14.56732 C 26.186647 16.356535 26.848164 23.501144 22.03379 26.209477 C 21.470276 26.51585 20.88226 26.809967 20.269745 27.09183 C 12.490794 30.596732 3.364309 29.175164 -3.410115 23.979085 C -8.996259 19.702124 -13.908635 13.905555 -17.779735 5.805064 C -17.779735 5.805064 -26.844968 -19.035624 -26.844968 -19.035624 C -26.844968 -19.035624 -2.185083 -30.591997 -2.185083 -30.591997 Z M -2.185083 -30.591997 " stroke="#253237" stroke-width="2" stroke-opacity="1" stroke-miterlimit="10"/><path fill="#a4c2db" d="M 54.445312 163.640625 C 49.109375 157.160156 59.902344 148.277344 65.238281 154.761719 C 65.238281 154.761719 88.964844 189.6875 88.964844 189.6875 C 88.964844 189.6875 79.269531 195.054688 79.269531 195.054688 C 79.269531 195.054688 54.445312 163.640625 54.445312 163.640625 Z M 54.445312 163.640625 " fill-opacity="1" fill-rule="nonzero"/><path stroke-linecap="butt" transform="matrix(0.318869, 0, 0, 0.31875, 71.706422, 179.34888)" fill="none" stroke-linejoin="miter" d="M 54.123804 32.434888 C 54.123804 32.434888 23.718521 49.273124 23.718521 49.273124 C 23.718521 49.273124 -54.132234 -49.280804 -54.132234 -49.280804 " stroke="#253237" stroke-width="2" stroke-opacity="1" stroke-miterlimit="10"/><path stroke-linecap="round" transform="matrix(0.318869, 0, 0, 0.31875, 78.254728, 173.920887)" fill="none" stroke-linejoin="round" d="M -33.592942 -49.469943 C -33.592942 -49.469943 33.587787 49.463887 33.587787 49.463887 " stroke="#253237" stroke-width="2" stroke-opacity="1" stroke-miterlimit="4"/><path stroke-linecap="round" transform="matrix(0.318869, 0, 0, 0.31875, 53.473475, 160.3654)" fill="none" stroke-linejoin="round" d="M -0.798837 -10.276255 C -3.052895 -1.991941 -1.154096 4.613452 3.047762 10.275217 " stroke="#253237" stroke-width="2" stroke-opacity="1" stroke-miterlimit="4"/><path stroke-linecap="round" transform="matrix(0.299639, 0.109019, -0.10906, 0.299527, 185.050363, 133.546441)" fill-opacity="1" fill="#ffffff" fill-rule="nonzero" stroke-linejoin="round" d="M -26.282873 18.187994 C -26.282873 18.187994 -15.595344 10.802958 -15.595344 10.802958 C -14.218331 9.858359 -13.188967 8.531679 -12.603478 6.988356 C -12.603478 6.988356 -9.416757 -1.448613 -9.416757 -1.448613 C -8.072221 -4.98967 -5.996966 -8.1707 -3.290345 -10.799045 C -3.290345 -10.799045 21.025262 -34.50335 21.025262 -34.50335 C 23.22302 -35.055482 24.554762 -34.118685 25.125093 -31.835362 C 25.550731 -30.164486 25.159994 -28.444261 24.160973 -27.141667 C 24.160973 -27.141667 11.245905 -10.260304 11.245905 -10.260304 C 18.112754 -8.442932 22.524231 -3.879998 25.059923 2.800218 C 26.283759 6.01941 25.886416 9.476545 23.945933 12.060784 C 21.242857 15.665943 17.205626 20.08273 12.79796 24.699552 C 10.9671 26.617904 8.701692 28.094515 6.138812 29.040368 C 6.138812 29.040368 -10.132176 35.053813 -10.132176 35.053813 C -10.132176 35.053813 -26.282873 18.187994 -26.282873 18.187994 Z M -26.282873 18.187994 " stroke="#253237" stroke-width="2" stroke-opacity="1" stroke-miterlimit="4"/><path fill="#a4c2db" d="M 140.46875 149.757812 C 132.628906 152.769531 137.644531 165.8125 145.484375 162.800781 C 145.484375 162.800781 183.347656 144.09375 183.347656 144.09375 C 183.347656 144.09375 177.554688 134.648438 177.554688 134.648438 C 177.554688 134.648438 140.46875 149.757812 140.46875 149.757812 Z M 140.46875 149.757812 " fill-opacity="1" fill-rule="nonzero"/><path stroke-linecap="butt" transform="matrix(0.299639, 0.109019, -0.10906, 0.299527, 163.088579, 143.685576)" fill="none" stroke-linejoin="miter" d="M 60.140499 -20.526622 C 60.140499 -20.526622 32.934037 -42.158372 32.934037 -42.158372 C 32.934037 -42.158372 -60.14401 42.163378 -60.14401 42.163378 " stroke="#253237" stroke-width="2" stroke-opacity="1" stroke-miterlimit="10"/><path stroke-linecap="round" transform="matrix(0.299639, 0.109019, -0.10906, 0.299527, 166.254807, 152.538564)" fill="none" stroke-linejoin="round" d="M -41.303209 43.230298 C -41.303209 43.230298 41.310481 -43.229613 41.310481 -43.229613 " stroke="#253237" stroke-width="2" stroke-opacity="1" stroke-miterlimit="4"/><path stroke-linecap="round" transform="matrix(0.299639, 0.109019, -0.10906, 0.299527, 144.01829, 161.726665)" fill="none" stroke-linejoin="round" d="M -14.361424 6.126643 C -5.575098 7.701833 1.907286 7.234629 14.356351 -7.703492 " stroke="#253237" stroke-width="2" stroke-opacity="1" stroke-miterlimit="4"/><path stroke-linecap="round" transform="matrix(0.311901, -0.0662718, 0.0662967, 0.311785, 108.545981, 59.768631)" fill-opacity="1" fill="#253237" fill-rule="nonzero" stroke-linejoin="round" d="M 4.349841 -19.331409 C 8.410105 -6.616238 5.805429 6.285928 -2.127783 19.333405 C -2.127783 19.333405 -8.417947 -17.359558 -8.417947 -17.359558 C -8.417947 -17.359558 4.349841 -19.331409 4.349841 -19.331409 Z M 4.349841 -19.331409 " stroke="#253237" stroke-width="2" stroke-opacity="1" stroke-miterlimit="4"/><path stroke-linecap="butt" transform="matrix(0.311901, -0.0662718, 0.0662967, 0.311785, 97.022033, 69.400704)" fill-opacity="1" fill="#ffffff" fill-rule="nonzero" stroke-linejoin="miter" d="M -39.548074 -8.476115 C -39.548074 -8.476115 -39.179264 15.419307 -39.179264 15.419307 C -39.179264 15.419307 -37.136162 44.105765 -37.136162 44.105765 C -18.176979 57.431947 1.883247 64.164029 23.937939 58.979295 C 28.658317 57.865294 32.449131 54.34866 33.932323 49.727621 C 40.4859 29.383359 41.219183 1.186811 36.324171 -34.645812 C 19.392065 -64.16669 -18.061323 -62.367807 -41.225437 -37.999426 C -41.225437 -37.999426 -39.548074 -8.476115 -39.548074 -8.476115 Z M -39.548074 -8.476115 " stroke="#253237" stroke-width="2" stroke-opacity="1" stroke-miterlimit="10"/><path stroke-linecap="butt" transform="matrix(0.311901, -0.0662718, 0.0662967, 0.311785, 82.028181, 72.616534)" fill-opacity="1" fill="#ffffff" fill-rule="nonzero" stroke-linejoin="miter" d="M 8.555894 -8.565571 C 3.913201 -16.242723 -8.980658 -11.203084 -5.057021 1.683505 C -0.869783 12.446133 3.976509 15.217731 8.980904 16.243862 C 8.980904 16.243862 8.555894 -8.565571 8.555894 -8.565571 Z M 8.555894 -8.565571 " stroke="#253237" stroke-width="2" stroke-opacity="1" stroke-miterlimit="10"/><path stroke-linecap="round" transform="matrix(0.311901, -0.0662718, 0.0662967, 0.311785, 82.836957, 63.969759)" fill-opacity="1" fill="#253237" fill-rule="nonzero" stroke-linejoin="round" d="M 11.344547 -22.33603 C 20.710635 -7.891695 13.148237 20.557182 0.854559 28.017142 C 0.854559 28.017142 0.422902 17.438882 0.422902 17.438882 C -2.682955 14.197803 -6.040025 12.256425 -10.342306 15.351126 C -19.494384 -2.280121 -20.702598 -16.982507 -11.972184 -28.006289 C -11.972184 -28.006289 11.344547 -22.33603 11.344547 -22.33603 Z M 11.344547 -22.33603 " stroke="#253237" stroke-width="2" stroke-opacity="1" stroke-miterlimit="4"/><path stroke-linecap="round" transform="matrix(0.311901, -0.0662718, 0.0662967, 0.311785, 94.107186, 50.985916)" fill-opacity="1" fill="#253237" fill-rule="nonzero" stroke-linejoin="round" d="M 40.939142 -23.526836 C 55.019192 -2.329852 47.727554 13.885938 33.873504 28.569028 C 22.160906 16.031434 1.425216 14.480468 -27.509461 22.926131 C -27.509461 22.926131 -55.013168 4.48871 -55.013168 4.48871 C -52.577988 -20.401848 -25.093135 -28.566832 -3.926269 -16.199663 C 18.925923 -6.694139 34.187813 -8.674586 40.939142 -23.526836 Z M 40.939142 -23.526836 " stroke="#253237" stroke-width="2" stroke-opacity="1" stroke-miterlimit="4"/><path stroke-linecap="round" transform="matrix(0.311901, -0.0662718, 0.0662967, 0.311785, 104.224766, 70.226662)" fill="none" stroke-linejoin="round" d="M -1.793255 -18.109575 C -1.150161 -4.755119 1.728017 6.568682 6.841279 15.861827 C 1.918303 17.63437 -2.614008 18.099268 -6.843318 17.551104 " stroke="#253237" stroke-width="2" stroke-opacity="1" stroke-miterlimit="4"/><path stroke-linecap="round" transform="matrix(0.311901, -0.0662718, 0.0662967, 0.311785, 94.201851, 64.557557)" fill="none" stroke-linejoin="round" d="M 6.598051 -2.327765 C 0.760523 -3.205238 -3.639557 -1.359136 -6.599639 3.198555 " stroke="#253237" stroke-width="2" stroke-opacity="1" stroke-miterlimit="4"/><path stroke-linecap="round" transform="matrix(0.311901, -0.0662718, 0.0662967, 0.311785, 105.682776, 63.495574)" fill="none" stroke-linejoin="round" d="M 5.223359 1.775945 C 2.567337 -0.517568 -0.646625 -1.777036 -5.217082 -0.543468 " stroke="#253237" stroke-width="2" stroke-opacity="1" stroke-miterlimit="4"/><path stroke-linecap="round" transform="matrix(0.311901, -0.0662718, 0.0662967, 0.311785, 96.593691, 69.794775)" fill-opacity="1" fill="#253237" fill-rule="nonzero" stroke-linejoin="round" d="M -2.680126 0.000849184 C -2.67976 2.945168 -1.480726 5.317378 -0.0030788 5.318244 C 1.474568 5.319111 2.680662 2.94445 2.680296 0.000131593 C 2.679931 -2.944187 1.480896 -5.316397 0.00324893 -5.317264 C -1.486381 -5.320677 -2.680492 -2.943469 -2.680126 0.000849184 Z M -2.680126 0.000849184 " stroke="#253237" stroke-width="2" stroke-opacity="1" stroke-miterlimit="4"/><path stroke-linecap="round" transform="matrix(0.311901, -0.0662718, 0.0662967, 0.311785, 106.362113, 66.690435)" fill-opacity="1" fill="#253237" fill-rule="nonzero" stroke-linejoin="round" d="M -2.12582 0.00229152 C -2.11864 2.384268 -1.166699 4.328096 -0.00135644 4.325223 C 1.175968 4.324898 2.126918 2.384623 2.119739 0.00264738 C 2.115108 -2.391316 1.1726 -4.32061 -0.00472438 -4.320285 C -1.167519 -4.329399 -2.118468 -2.389125 -2.12582 0.00229152 Z M -2.12582 0.00229152 " stroke="#253237" stroke-width="2" stroke-opacity="1" stroke-miterlimit="4"/><path stroke-linecap="round" transform="matrix(0.311901, -0.0662718, 0.0662967, 0.311785, 99.939418, 80.805794)" fill="none" stroke-linejoin="round" d="M 9.717925 4.805842 C 2.281816 3.200191 -4.416132 0.360757 -9.718814 -4.800599 " stroke="#253237" stroke-width="2" stroke-opacity="1" stroke-miterlimit="4"/></svg>