<svg xmlns="http://www.w3.org/2000/svg" xmlns:xlink="http://www.w3.org/1999/xlink" width="500" zoomAndPan="magnify" viewBox="0 0 375 374.999991" height="500" preserveAspectRatio="xMidYMid meet" version="1.0"><defs><clipPath id="0b8cc58c46"><path d="M 54.375 1 L 302 1 L 302 361 L 54.375 361 Z M 54.375 1 " clip-rule="nonzero"/></clipPath><clipPath id="5f27661a49"><path d="M 54.375 6 L 302 6 L 302 361 L 54.375 361 Z M 54.375 6 " clip-rule="nonzero"/></clipPath><clipPath id="af39902147"><path d="M 54.375 153 L 239 153 L 239 361 L 54.375 361 Z M 54.375 153 " clip-rule="nonzero"/></clipPath><clipPath id="01d9c84e3b"><path d="M 90 22 L 320.625 22 L 320.625 367 L 90 367 Z M 90 22 " clip-rule="nonzero"/></clipPath></defs><g clip-path="url(#0b8cc58c46)"><path fill="#323738" d="M 301.894531 28.214844 L 265.351562 7.28125 C 263.75 6.113281 262.039062 5.128906 260.21875 4.335938 L 259.679688 4.03125 L 259.65625 4.074219 C 249.824219 0.078125 237.125 1.523438 223.269531 9.519531 L 110.707031 74.496094 C 79.757812 92.367188 54.433594 136.230469 54.433594 171.96875 L 54.433594 301.9375 C 54.433594 319.363281 60.488281 331.722656 70.246094 337.789062 L 70.152344 337.960938 L 110.769531 360.96875 L 133.609375 321.207031 L 223.269531 269.445312 C 254.214844 251.578125 279.542969 207.714844 279.542969 171.972656 L 279.542969 67.132812 Z M 301.894531 28.214844 " fill-opacity="1" fill-rule="nonzero"/></g><g clip-path="url(#5f27661a49)"><path fill="#252b2d" d="M 301.894531 28.214844 L 262.777344 19.039062 C 261.175781 17.875 253.191406 17.902344 251.367188 17.109375 L 248.46875 15.949219 L 243.246094 14.980469 C 233.414062 10.984375 237.125 1.519531 223.269531 9.515625 L 110.707031 74.496094 C 79.757812 92.367188 54.433594 136.230469 54.433594 171.96875 L 54.433594 301.9375 C 54.433594 319.363281 60.488281 331.722656 70.246094 337.789062 L 70.152344 337.960938 L 110.769531 360.96875 L 133.609375 321.207031 L 223.269531 269.445312 C 254.214844 251.578125 279.542969 207.714844 279.542969 171.972656 L 279.542969 67.132812 Z M 301.894531 28.214844 " fill-opacity="1" fill-rule="nonzero"/></g><g clip-path="url(#af39902147)"><path fill="#090c0c" d="M 56.585938 153.246094 C 55.222656 159.609375 54.445312 165.910156 54.445312 171.96875 L 54.445312 301.9375 C 54.445312 319.363281 60.496094 331.722656 70.257812 337.789062 L 70.160156 337.960938 L 110.777344 360.96875 L 133.617188 321.207031 L 223.277344 269.445312 C 228.535156 266.410156 233.617188 262.574219 238.449219 258.199219 Z M 56.585938 153.246094 " fill-opacity="1" fill-rule="nonzero"/></g><path fill="#3b4142" d="M 149.402344 96.929688 C 118.453125 114.800781 93.125 158.664062 93.125 194.402344 L 93.125 324.367188 C 93.125 360.105469 118.453125 374.726562 149.402344 356.855469 L 261.957031 291.875 C 292.90625 274.003906 318.234375 230.144531 318.234375 194.402344 L 318.234375 64.441406 C 318.234375 28.699219 292.90625 14.085938 261.957031 31.953125 Z M 149.402344 96.929688 " fill-opacity="1" fill-rule="nonzero"/><path fill="#383e3f" d="M 318.230469 64.441406 C 318.230469 28.699219 292.902344 14.085938 261.953125 31.953125 L 149.398438 96.929688 C 118.449219 114.800781 93.121094 158.664062 93.121094 194.402344 L 93.121094 324.367188 C 93.121094 360.105469 118.449219 374.726562 149.398438 356.855469 " fill-opacity="0.2" fill-rule="nonzero"/><path fill="#3b4142" d="M 93.898438 184.636719 L 317.464844 55.5625 C 317.824219 52.859375 318.046875 50.183594 318.140625 47.542969 L 93.222656 177.398438 C 93.316406 179.925781 93.546875 182.339844 93.898438 184.636719 Z M 93.898438 184.636719 " fill-opacity="1" fill-rule="nonzero"/><g clip-path="url(#01d9c84e3b)"><path fill="#4f5759" d="M 124.402344 366.804688 L 124.394531 366.804688 C 103.992188 366.804688 90.804688 350.144531 90.804688 324.367188 L 90.804688 194.402344 C 90.804688 157.832031 116.566406 113.203125 148.234375 94.921875 L 260.796875 29.9375 C 269.921875 24.671875 278.722656 22.007812 286.957031 22.007812 C 307.363281 22.007812 320.554688 38.664062 320.554688 64.441406 L 320.554688 194.402344 C 320.554688 230.976562 294.785156 275.605469 263.117188 293.886719 L 150.558594 358.871094 C 141.433594 364.132812 132.636719 366.804688 124.402344 366.804688 Z M 286.960938 26.636719 C 279.550781 26.636719 271.527344 29.097656 263.121094 33.949219 L 150.558594 98.929688 C 120.171875 116.480469 95.445312 159.300781 95.445312 194.394531 L 95.445312 324.359375 C 95.445312 347.671875 106.535156 362.152344 124.394531 362.152344 L 124.402344 362.152344 C 131.8125 362.152344 139.828125 359.691406 148.234375 354.84375 L 260.796875 289.859375 C 291.183594 272.316406 315.910156 229.488281 315.910156 194.394531 L 315.910156 64.433594 C 315.914062 41.121094 304.820312 26.636719 286.960938 26.636719 Z M 286.960938 26.636719 " fill-opacity="1" fill-rule="nonzero"/></g><path fill="#ff4d8d" d="M 137.914062 133.386719 C 137.917969 130.390625 140.035156 126.714844 142.628906 125.222656 C 145.222656 123.726562 147.34375 124.945312 147.339844 127.941406 C 147.34375 130.9375 145.21875 134.613281 142.628906 136.109375 C 140.035156 137.601562 137.917969 136.378906 137.914062 133.386719 Z M 137.914062 133.386719 " fill-opacity="1" fill-rule="nonzero"/><path fill="#ea2864" d="M 142.632812 136.109375 C 140.035156 137.597656 137.921875 136.378906 137.917969 133.386719 C 137.921875 130.390625 140.035156 126.714844 142.632812 125.222656 " fill-opacity="1" fill-rule="nonzero"/><path fill="#f7d011" d="M 158 121.902344 C 158 118.90625 160.121094 115.234375 162.710938 113.738281 C 165.304688 112.242188 167.425781 113.464844 167.425781 116.460938 C 167.425781 119.453125 165.304688 123.125 162.710938 124.625 C 160.121094 126.121094 158 124.898438 158 121.902344 Z M 158 121.902344 " fill-opacity="1" fill-rule="nonzero"/><path fill="#f4b414" d="M 162.714844 124.625 C 160.121094 126.121094 158.003906 124.898438 158.003906 121.902344 C 158.003906 118.90625 160.121094 115.234375 162.714844 113.738281 " fill-opacity="1" fill-rule="nonzero"/><path fill="#15eaa8" d="M 178.085938 110.421875 C 178.085938 107.425781 180.207031 103.75 182.796875 102.253906 C 185.390625 100.757812 187.507812 101.980469 187.507812 104.976562 C 187.507812 107.972656 185.386719 111.640625 182.796875 113.136719 C 180.207031 114.632812 178.085938 113.410156 178.085938 110.421875 Z M 178.085938 110.421875 " fill-opacity="1" fill-rule="nonzero"/><path fill="#08c1b3" d="M 182.800781 113.136719 C 180.207031 114.632812 178.085938 113.410156 178.085938 110.421875 C 178.085938 107.425781 180.207031 103.75 182.800781 102.253906 " fill-opacity="1" fill-rule="nonzero"/><path fill="#ffffff" d="M 196.234375 232.328125 C 194.804688 232.328125 193.347656 231.96875 192.019531 231.199219 L 148.148438 205.871094 C 144.113281 203.539062 142.734375 198.371094 145.058594 194.335938 C 147.390625 190.296875 152.546875 188.914062 156.597656 191.246094 L 200.464844 216.574219 C 204.507812 218.90625 205.886719 224.074219 203.554688 228.109375 C 201.992188 230.816406 199.15625 232.328125 196.234375 232.328125 Z M 196.234375 232.328125 " fill-opacity="1" fill-rule="nonzero"/><path fill="#ffffff" d="M 152.367188 308.308594 C 150.9375 308.308594 149.488281 307.945312 148.152344 307.179688 C 144.117188 304.847656 142.738281 299.683594 145.0625 295.648438 L 188.929688 219.65625 C 191.261719 215.617188 196.410156 214.234375 200.46875 216.566406 C 204.507812 218.898438 205.890625 224.058594 203.558594 228.101562 L 159.6875 304.089844 C 158.125 306.800781 155.285156 308.308594 152.367188 308.308594 Z M 152.367188 308.308594 " fill-opacity="1" fill-rule="nonzero"/><path fill="#ffffff" d="M 210.882812 274.546875 C 207.960938 274.546875 205.125 273.035156 203.558594 270.324219 C 201.230469 266.289062 202.609375 261.125 206.652344 258.792969 L 265.152344 225.019531 C 269.195312 222.675781 274.355469 224.074219 276.6875 228.109375 C 279.015625 232.152344 277.632812 237.316406 273.59375 239.648438 L 215.09375 273.417969 C 213.761719 274.183594 212.308594 274.546875 210.882812 274.546875 Z M 210.882812 274.546875 " fill-opacity="1" fill-rule="nonzero"/></svg>