<svg xmlns="http://www.w3.org/2000/svg" xmlns:xlink="http://www.w3.org/1999/xlink" width="1584" zoomAndPan="magnify" viewBox="0 0 1188 296.999993" height="396" preserveAspectRatio="xMidYMid meet" version="1.0"><defs><clipPath id="d1a7e44dc0"><path d="M 245.777344 0 L 542.777344 0 L 542.777344 297 L 245.777344 297 Z M 245.777344 0 " clip-rule="nonzero"/></clipPath><clipPath id="038dd5f4ef"><path d="M 490.113281 0 L 787.113281 0 L 787.113281 297 L 490.113281 297 Z M 490.113281 0 " clip-rule="nonzero"/></clipPath><clipPath id="0cc1cb85a3"><path d="M 734.054688 0 L 1031.054688 0 L 1031.054688 297 L 734.054688 297 Z M 734.054688 0 " clip-rule="nonzero"/></clipPath><clipPath id="5249b9793d"><path d="M 979.863281 0 L 1188 0 L 1188 297 L 979.863281 297 Z M 979.863281 0 " clip-rule="nonzero"/></clipPath></defs><path fill="#737373" d="M 295.542969 100.945312 C 295.738281 100.945312 295.921875 100.90625 296.101562 100.832031 C 296.28125 100.757812 296.4375 100.652344 296.574219 100.515625 C 296.710938 100.378906 296.816406 100.222656 296.890625 100.042969 C 296.964844 99.867188 297 99.679688 297 99.488281 C 297 99.292969 296.964844 99.109375 296.890625 98.929688 C 296.816406 98.753906 296.710938 98.59375 296.574219 98.457031 C 296.4375 98.320312 296.28125 98.214844 296.101562 98.144531 C 295.921875 98.070312 295.738281 98.03125 295.542969 98.03125 L 247.988281 98.03125 L 247.988281 51.925781 L 295.542969 51.925781 C 295.738281 51.925781 295.921875 51.886719 296.101562 51.8125 C 296.28125 51.738281 296.4375 51.632812 296.574219 51.496094 C 296.710938 51.359375 296.816406 51.203125 296.890625 51.023438 C 296.964844 50.847656 297 50.660156 297 50.46875 C 297 50.273438 296.964844 50.089844 296.890625 49.910156 C 296.816406 49.734375 296.710938 49.574219 296.574219 49.4375 C 296.4375 49.300781 296.28125 49.195312 296.101562 49.125 C 295.921875 49.050781 295.738281 49.011719 295.542969 49.011719 L 247.988281 49.011719 L 247.988281 1.457031 C 247.988281 1.261719 247.949219 1.078125 247.875 0.898438 C 247.804688 0.71875 247.699219 0.5625 247.5625 0.425781 C 247.425781 0.289062 247.265625 0.183594 247.089844 0.109375 C 246.910156 0.0351562 246.726562 0 246.53125 0 C 246.339844 0 246.152344 0.0351562 245.976562 0.109375 C 245.796875 0.183594 245.640625 0.289062 245.503906 0.425781 C 245.367188 0.5625 245.261719 0.71875 245.1875 0.898438 C 245.113281 1.078125 245.074219 1.261719 245.074219 1.457031 L 245.074219 49.011719 L 198.96875 49.011719 L 198.96875 1.457031 C 198.96875 1.261719 198.929688 1.078125 198.855469 0.898438 C 198.785156 0.71875 198.679688 0.5625 198.542969 0.425781 C 198.40625 0.289062 198.246094 0.183594 198.070312 0.109375 C 197.890625 0.0351562 197.707031 0 197.511719 0 C 197.320312 0 197.132812 0.0351562 196.957031 0.109375 C 196.777344 0.183594 196.621094 0.289062 196.484375 0.425781 C 196.347656 0.5625 196.242188 0.71875 196.167969 0.898438 C 196.09375 1.078125 196.054688 1.261719 196.054688 1.457031 L 196.054688 49.011719 L 149.957031 49.011719 L 149.957031 1.457031 C 149.957031 1.261719 149.917969 1.078125 149.84375 0.898438 C 149.769531 0.71875 149.664062 0.5625 149.53125 0.425781 C 149.394531 0.289062 149.234375 0.183594 149.058594 0.109375 C 148.878906 0.0351562 148.691406 0 148.5 0 C 148.308594 0 148.121094 0.0351562 147.941406 0.109375 C 147.765625 0.183594 147.605469 0.289062 147.46875 0.425781 C 147.335938 0.5625 147.230469 0.71875 147.15625 0.898438 C 147.082031 1.078125 147.042969 1.261719 147.042969 1.457031 L 147.042969 49.011719 L 100.945312 49.011719 L 100.945312 1.457031 C 100.945312 1.261719 100.90625 1.078125 100.832031 0.898438 C 100.757812 0.71875 100.652344 0.5625 100.515625 0.425781 C 100.378906 0.289062 100.222656 0.183594 100.042969 0.109375 C 99.867188 0.0351562 99.679688 0 99.488281 0 C 99.292969 0 99.109375 0.0351562 98.929688 0.109375 C 98.753906 0.183594 98.59375 0.289062 98.457031 0.425781 C 98.320312 0.5625 98.214844 0.71875 98.144531 0.898438 C 98.070312 1.078125 98.03125 1.261719 98.03125 1.457031 L 98.03125 49.011719 L 51.925781 49.011719 L 51.925781 1.457031 C 51.925781 1.261719 51.886719 1.078125 51.8125 0.898438 C 51.738281 0.71875 51.632812 0.5625 51.496094 0.425781 C 51.359375 0.289062 51.203125 0.183594 51.023438 0.109375 C 50.847656 0.0351562 50.660156 0 50.46875 0 C 50.273438 0 50.089844 0.0351562 49.910156 0.109375 C 49.734375 0.183594 49.574219 0.289062 49.4375 0.425781 C 49.300781 0.5625 49.195312 0.71875 49.125 0.898438 C 49.050781 1.078125 49.011719 1.261719 49.011719 1.457031 L 49.011719 49.011719 L 1.457031 49.011719 C 1.261719 49.011719 1.078125 49.050781 0.898438 49.125 C 0.71875 49.195312 0.5625 49.300781 0.425781 49.4375 C 0.289062 49.574219 0.183594 49.734375 0.109375 49.910156 C 0.0351562 50.089844 0 50.273438 0 50.46875 C 0 50.660156 0.0351562 50.847656 0.109375 51.023438 C 0.183594 51.203125 0.289062 51.359375 0.425781 51.496094 C 0.5625 51.632812 0.71875 51.738281 0.898438 51.8125 C 1.078125 51.886719 1.261719 51.925781 1.457031 51.925781 L 49.011719 51.925781 L 49.011719 98.03125 L 1.457031 98.03125 C 1.261719 98.03125 1.078125 98.070312 0.898438 98.144531 C 0.71875 98.214844 0.5625 98.320312 0.425781 98.457031 C 0.289062 98.59375 0.183594 98.753906 0.109375 98.929688 C 0.0351562 99.109375 0 99.292969 0 99.488281 C 0 99.679688 0.0351562 99.867188 0.109375 100.042969 C 0.183594 100.222656 0.289062 100.378906 0.425781 100.515625 C 0.5625 100.652344 0.71875 100.757812 0.898438 100.832031 C 1.078125 100.90625 1.261719 100.945312 1.457031 100.945312 L 49.011719 100.945312 L 49.011719 147.042969 L 1.457031 147.042969 C 1.261719 147.042969 1.078125 147.082031 0.898438 147.15625 C 0.71875 147.230469 0.5625 147.335938 0.425781 147.46875 C 0.289062 147.605469 0.183594 147.765625 0.109375 147.941406 C 0.0351562 148.121094 0 148.308594 0 148.5 C 0 148.691406 0.0351562 148.878906 0.109375 149.058594 C 0.183594 149.234375 0.289062 149.394531 0.425781 149.53125 C 0.5625 149.664062 0.71875 149.769531 0.898438 149.84375 C 1.078125 149.917969 1.261719 149.957031 1.457031 149.957031 L 49.011719 149.957031 L 49.011719 196.054688 L 1.457031 196.054688 C 1.261719 196.054688 1.078125 196.09375 0.898438 196.167969 C 0.71875 196.242188 0.5625 196.347656 0.425781 196.484375 C 0.289062 196.621094 0.183594 196.777344 0.109375 196.957031 C 0.0351562 197.132812 0 197.320312 0 197.511719 C 0 197.707031 0.0351562 197.890625 0.109375 198.070312 C 0.183594 198.246094 0.289062 198.40625 0.425781 198.542969 C 0.5625 198.679688 0.71875 198.785156 0.898438 198.855469 C 1.078125 198.929688 1.261719 198.96875 1.457031 198.96875 L 49.011719 198.96875 L 49.011719 245.074219 L 1.457031 245.074219 C 1.261719 245.074219 1.078125 245.113281 0.898438 245.1875 C 0.71875 245.261719 0.5625 245.367188 0.425781 245.503906 C 0.289062 245.640625 0.183594 245.796875 0.109375 245.976562 C 0.0351562 246.152344 0 246.339844 0 246.53125 C 0 246.726562 0.0351562 246.910156 0.109375 247.089844 C 0.183594 247.265625 0.289062 247.425781 0.425781 247.5625 C 0.5625 247.699219 0.71875 247.804688 0.898438 247.875 C 1.078125 247.949219 1.261719 247.988281 1.457031 247.988281 L 49.011719 247.988281 L 49.011719 295.542969 C 49.011719 295.738281 49.050781 295.921875 49.125 296.101562 C 49.195312 296.28125 49.300781 296.4375 49.4375 296.574219 C 49.574219 296.710938 49.734375 296.816406 49.910156 296.890625 C 50.089844 296.964844 50.273438 297 50.46875 297 C 50.660156 297 50.847656 296.964844 51.023438 296.890625 C 51.203125 296.816406 51.359375 296.710938 51.496094 296.574219 C 51.632812 296.4375 51.738281 296.28125 51.8125 296.101562 C 51.886719 295.921875 51.925781 295.738281 51.925781 295.542969 L 51.925781 247.988281 L 98.03125 247.988281 L 98.03125 295.542969 C 98.03125 295.738281 98.070312 295.921875 98.144531 296.101562 C 98.214844 296.28125 98.320312 296.4375 98.457031 296.574219 C 98.59375 296.710938 98.753906 296.816406 98.929688 296.890625 C 99.109375 296.964844 99.292969 297 99.488281 297 C 99.679688 297 99.867188 296.964844 100.042969 296.890625 C 100.222656 296.816406 100.378906 296.710938 100.515625 296.574219 C 100.652344 296.4375 100.757812 296.28125 100.832031 296.101562 C 100.90625 295.921875 100.945312 295.738281 100.945312 295.542969 L 100.945312 247.988281 L 147.042969 247.988281 L 147.042969 295.542969 C 147.042969 295.738281 147.082031 295.921875 147.15625 296.101562 C 147.230469 296.28125 147.335938 296.4375 147.46875 296.574219 C 147.605469 296.710938 147.765625 296.816406 147.941406 296.890625 C 148.121094 296.964844 148.308594 297 148.5 297 C 148.691406 297 148.878906 296.964844 149.058594 296.890625 C 149.234375 296.816406 149.394531 296.710938 149.53125 296.574219 C 149.664062 296.4375 149.769531 296.28125 149.84375 296.101562 C 149.917969 295.921875 149.957031 295.738281 149.957031 295.542969 L 149.957031 247.988281 L 196.054688 247.988281 L 196.054688 295.542969 C 196.054688 295.738281 196.09375 295.921875 196.167969 296.101562 C 196.242188 296.28125 196.347656 296.4375 196.484375 296.574219 C 196.621094 296.710938 196.777344 296.816406 196.957031 296.890625 C 197.132812 296.964844 197.320312 297 197.511719 297 C 197.707031 297 197.890625 296.964844 198.070312 296.890625 C 198.246094 296.816406 198.40625 296.710938 198.542969 296.574219 C 198.679688 296.4375 198.785156 296.28125 198.855469 296.101562 C 198.929688 295.921875 198.96875 295.738281 198.96875 295.542969 L 198.96875 247.988281 L 245.074219 247.988281 L 245.074219 295.542969 C 245.074219 295.738281 245.113281 295.921875 245.1875 296.101562 C 245.261719 296.28125 245.367188 296.4375 245.503906 296.574219 C 245.640625 296.710938 245.796875 296.816406 245.976562 296.890625 C 246.152344 296.964844 246.339844 297 246.53125 297 C 246.726562 297 246.910156 296.964844 247.089844 296.890625 C 247.265625 296.816406 247.425781 296.710938 247.5625 296.574219 C 247.699219 296.4375 247.804688 296.28125 247.875 296.101562 C 247.949219 295.921875 247.988281 295.738281 247.988281 295.542969 L 247.988281 247.988281 L 295.542969 247.988281 C 295.738281 247.988281 295.921875 247.949219 296.101562 247.875 C 296.28125 247.804688 296.4375 247.699219 296.574219 247.5625 C 296.710938 247.425781 296.816406 247.265625 296.890625 247.089844 C 296.964844 246.910156 297 246.726562 297 246.53125 C 297 246.339844 296.964844 246.152344 296.890625 245.976562 C 296.816406 245.796875 296.710938 245.640625 296.574219 245.503906 C 296.4375 245.367188 296.28125 245.261719 296.101562 245.1875 C 295.921875 245.113281 295.738281 245.074219 295.542969 245.074219 L 247.988281 245.074219 L 247.988281 198.96875 L 295.542969 198.96875 C 295.738281 198.96875 295.921875 198.929688 296.101562 198.855469 C 296.28125 198.785156 296.4375 198.679688 296.574219 198.542969 C 296.710938 198.40625 296.816406 198.246094 296.890625 198.070312 C 296.964844 197.890625 297 197.707031 297 197.511719 C 297 197.320312 296.964844 197.132812 296.890625 196.957031 C 296.816406 196.777344 296.710938 196.621094 296.574219 196.484375 C 296.4375 196.347656 296.28125 196.242188 296.101562 196.167969 C 295.921875 196.09375 295.738281 196.054688 295.542969 196.054688 L 247.988281 196.054688 L 247.988281 149.957031 L 295.542969 149.957031 C 295.738281 149.957031 295.921875 149.917969 296.101562 149.84375 C 296.28125 149.769531 296.4375 149.664062 296.574219 149.53125 C 296.710938 149.394531 296.816406 149.234375 296.890625 149.058594 C 296.964844 148.878906 297 148.691406 297 148.5 C 297 148.308594 296.964844 148.121094 296.890625 147.941406 C 296.816406 147.765625 296.710938 147.605469 296.574219 147.46875 C 296.4375 147.335938 296.28125 147.230469 296.101562 147.15625 C 295.921875 147.082031 295.738281 147.042969 295.542969 147.042969 L 247.988281 147.042969 L 247.988281 100.945312 Z M 245.074219 51.925781 L 245.074219 98.03125 L 198.96875 98.03125 L 198.96875 51.925781 Z M 196.054688 51.925781 L 196.054688 98.03125 L 149.957031 98.03125 L 149.957031 51.925781 Z M 147.042969 149.957031 L 147.042969 196.054688 L 100.945312 196.054688 L 100.945312 149.957031 Z M 100.945312 147.042969 L 100.945312 100.945312 L 147.042969 100.945312 L 147.042969 147.042969 Z M 149.957031 149.957031 L 196.054688 149.957031 L 196.054688 196.054688 L 149.957031 196.054688 Z M 149.957031 147.042969 L 149.957031 100.945312 L 196.054688 100.945312 L 196.054688 147.042969 Z M 147.042969 51.925781 L 147.042969 98.03125 L 100.945312 98.03125 L 100.945312 51.925781 Z M 51.925781 51.925781 L 98.03125 51.925781 L 98.03125 98.03125 L 51.925781 98.03125 Z M 51.925781 100.945312 L 98.03125 100.945312 L 98.03125 147.042969 L 51.925781 147.042969 Z M 51.925781 149.957031 L 98.03125 149.957031 L 98.03125 196.054688 L 51.925781 196.054688 Z M 51.925781 245.074219 L 51.925781 198.96875 L 98.03125 198.96875 L 98.03125 245.074219 Z M 100.945312 245.074219 L 100.945312 198.96875 L 147.042969 198.96875 L 147.042969 245.074219 Z M 149.957031 245.074219 L 149.957031 198.96875 L 196.054688 198.96875 L 196.054688 245.074219 Z M 245.074219 245.074219 L 198.96875 245.074219 L 198.96875 198.96875 L 245.074219 198.96875 Z M 245.074219 196.054688 L 198.96875 196.054688 L 198.96875 149.957031 L 245.074219 149.957031 Z M 245.074219 147.042969 L 198.96875 147.042969 L 198.96875 100.945312 L 245.074219 100.945312 Z M 245.074219 147.042969 " fill-opacity="1" fill-rule="nonzero"/><g clip-path="url(#d1a7e44dc0)"><path fill="#737373" d="M 541.324219 100.945312 C 541.515625 100.945312 541.703125 100.90625 541.878906 100.832031 C 542.058594 100.757812 542.214844 100.652344 542.351562 100.515625 C 542.488281 100.378906 542.59375 100.222656 542.667969 100.042969 C 542.742188 99.867188 542.777344 99.679688 542.777344 99.488281 C 542.777344 99.292969 542.742188 99.109375 542.667969 98.929688 C 542.59375 98.753906 542.488281 98.59375 542.351562 98.457031 C 542.214844 98.320312 542.058594 98.214844 541.878906 98.144531 C 541.703125 98.070312 541.515625 98.03125 541.324219 98.03125 L 493.765625 98.03125 L 493.765625 51.925781 L 541.324219 51.925781 C 541.515625 51.925781 541.703125 51.886719 541.878906 51.8125 C 542.058594 51.738281 542.214844 51.632812 542.351562 51.496094 C 542.488281 51.359375 542.59375 51.203125 542.667969 51.023438 C 542.742188 50.847656 542.777344 50.660156 542.777344 50.46875 C 542.777344 50.273438 542.742188 50.089844 542.667969 49.910156 C 542.59375 49.734375 542.488281 49.574219 542.351562 49.4375 C 542.214844 49.300781 542.058594 49.195312 541.878906 49.125 C 541.703125 49.050781 541.515625 49.011719 541.324219 49.011719 L 493.765625 49.011719 L 493.765625 1.457031 C 493.765625 1.261719 493.730469 1.078125 493.65625 0.898438 C 493.582031 0.71875 493.476562 0.5625 493.339844 0.425781 C 493.203125 0.289062 493.046875 0.183594 492.867188 0.109375 C 492.6875 0.0351562 492.503906 0 492.3125 0 C 492.117188 0 491.933594 0.0351562 491.753906 0.109375 C 491.574219 0.183594 491.417969 0.289062 491.28125 0.425781 C 491.144531 0.5625 491.039062 0.71875 490.964844 0.898438 C 490.890625 1.078125 490.855469 1.261719 490.855469 1.457031 L 490.855469 49.011719 L 444.746094 49.011719 L 444.746094 1.457031 C 444.746094 1.261719 444.710938 1.078125 444.636719 0.898438 C 444.5625 0.71875 444.457031 0.5625 444.320312 0.425781 C 444.183594 0.289062 444.027344 0.183594 443.847656 0.109375 C 443.667969 0.0351562 443.484375 0 443.292969 0 C 443.097656 0 442.914062 0.0351562 442.734375 0.109375 C 442.554688 0.183594 442.398438 0.289062 442.261719 0.425781 C 442.125 0.5625 442.019531 0.71875 441.945312 0.898438 C 441.871094 1.078125 441.835938 1.261719 441.835938 1.457031 L 441.835938 49.011719 L 395.734375 49.011719 L 395.734375 1.457031 C 395.734375 1.261719 395.699219 1.078125 395.625 0.898438 C 395.550781 0.71875 395.445312 0.5625 395.308594 0.425781 C 395.171875 0.289062 395.015625 0.183594 394.835938 0.109375 C 394.65625 0.0351562 394.472656 0 394.277344 0 C 394.085938 0 393.898438 0.0351562 393.722656 0.109375 C 393.542969 0.183594 393.386719 0.289062 393.25 0.425781 C 393.113281 0.5625 393.007812 0.71875 392.933594 0.898438 C 392.859375 1.078125 392.824219 1.261719 392.824219 1.457031 L 392.824219 49.011719 L 346.722656 49.011719 L 346.722656 1.457031 C 346.722656 1.261719 346.683594 1.078125 346.613281 0.898438 C 346.539062 0.71875 346.433594 0.5625 346.296875 0.425781 C 346.160156 0.289062 346.003906 0.183594 345.824219 0.109375 C 345.644531 0.0351562 345.460938 0 345.265625 0 C 345.074219 0 344.886719 0.0351562 344.710938 0.109375 C 344.53125 0.183594 344.375 0.289062 344.238281 0.425781 C 344.101562 0.5625 343.996094 0.71875 343.921875 0.898438 C 343.847656 1.078125 343.8125 1.261719 343.8125 1.457031 L 343.8125 49.011719 L 297.703125 49.011719 L 297.703125 1.457031 C 297.703125 1.261719 297.664062 1.078125 297.59375 0.898438 C 297.519531 0.71875 297.414062 0.5625 297.277344 0.425781 C 297.140625 0.289062 296.984375 0.183594 296.804688 0.109375 C 296.625 0.0351562 296.441406 0 296.246094 0 C 296.054688 0 295.867188 0.0351562 295.691406 0.109375 C 295.511719 0.183594 295.355469 0.289062 295.21875 0.425781 C 295.082031 0.5625 294.976562 0.71875 294.902344 0.898438 C 294.828125 1.078125 294.792969 1.261719 294.792969 1.457031 L 294.792969 49.011719 L 247.234375 49.011719 C 247.042969 49.011719 246.855469 49.050781 246.675781 49.125 C 246.5 49.195312 246.34375 49.300781 246.207031 49.4375 C 246.070312 49.574219 245.964844 49.734375 245.890625 49.910156 C 245.816406 50.089844 245.777344 50.273438 245.777344 50.46875 C 245.777344 50.660156 245.816406 50.847656 245.890625 51.023438 C 245.964844 51.203125 246.070312 51.359375 246.207031 51.496094 C 246.34375 51.632812 246.5 51.738281 246.675781 51.8125 C 246.855469 51.886719 247.042969 51.925781 247.234375 51.925781 L 294.792969 51.925781 L 294.792969 98.03125 L 247.234375 98.03125 C 247.042969 98.03125 246.855469 98.070312 246.675781 98.144531 C 246.5 98.214844 246.34375 98.320312 246.207031 98.457031 C 246.070312 98.59375 245.964844 98.753906 245.890625 98.929688 C 245.816406 99.109375 245.777344 99.292969 245.777344 99.488281 C 245.777344 99.679688 245.816406 99.867188 245.890625 100.042969 C 245.964844 100.222656 246.070312 100.378906 246.207031 100.515625 C 246.34375 100.652344 246.5 100.757812 246.675781 100.832031 C 246.855469 100.90625 247.042969 100.945312 247.234375 100.945312 L 294.792969 100.945312 L 294.792969 147.042969 L 247.234375 147.042969 C 247.042969 147.042969 246.855469 147.082031 246.675781 147.15625 C 246.5 147.230469 246.34375 147.335938 246.207031 147.46875 C 246.070312 147.605469 245.964844 147.765625 245.890625 147.941406 C 245.816406 148.121094 245.777344 148.308594 245.777344 148.5 C 245.777344 148.691406 245.816406 148.878906 245.890625 149.058594 C 245.964844 149.234375 246.070312 149.394531 246.207031 149.53125 C 246.34375 149.664062 246.5 149.769531 246.675781 149.84375 C 246.855469 149.917969 247.042969 149.957031 247.234375 149.957031 L 294.792969 149.957031 L 294.792969 196.054688 L 247.234375 196.054688 C 247.042969 196.054688 246.855469 196.09375 246.675781 196.167969 C 246.5 196.242188 246.34375 196.347656 246.207031 196.484375 C 246.070312 196.621094 245.964844 196.777344 245.890625 196.957031 C 245.816406 197.132812 245.777344 197.320312 245.777344 197.511719 C 245.777344 197.707031 245.816406 197.890625 245.890625 198.070312 C 245.964844 198.246094 246.070312 198.40625 246.207031 198.542969 C 246.34375 198.679688 246.5 198.785156 246.675781 198.855469 C 246.855469 198.929688 247.042969 198.96875 247.234375 198.96875 L 294.792969 198.96875 L 294.792969 245.074219 L 247.234375 245.074219 C 247.042969 245.074219 246.855469 245.113281 246.675781 245.1875 C 246.5 245.261719 246.34375 245.367188 246.207031 245.503906 C 246.070312 245.640625 245.964844 245.796875 245.890625 245.976562 C 245.816406 246.152344 245.777344 246.339844 245.777344 246.53125 C 245.777344 246.726562 245.816406 246.910156 245.890625 247.089844 C 245.964844 247.265625 246.070312 247.425781 246.207031 247.5625 C 246.34375 247.699219 246.5 247.804688 246.675781 247.875 C 246.855469 247.949219 247.042969 247.988281 247.234375 247.988281 L 294.792969 247.988281 L 294.792969 295.542969 C 294.792969 295.738281 294.828125 295.921875 294.902344 296.101562 C 294.976562 296.28125 295.082031 296.4375 295.21875 296.574219 C 295.355469 296.710938 295.511719 296.816406 295.691406 296.890625 C 295.867188 296.964844 296.054688 297 296.246094 297 C 296.441406 297 296.625 296.964844 296.804688 296.890625 C 296.984375 296.816406 297.140625 296.710938 297.277344 296.574219 C 297.414062 296.4375 297.519531 296.28125 297.59375 296.101562 C 297.664062 295.921875 297.703125 295.738281 297.703125 295.542969 L 297.703125 247.988281 L 343.8125 247.988281 L 343.8125 295.542969 C 343.8125 295.738281 343.847656 295.921875 343.921875 296.101562 C 343.996094 296.28125 344.101562 296.4375 344.238281 296.574219 C 344.375 296.710938 344.53125 296.816406 344.710938 296.890625 C 344.886719 296.964844 345.074219 297 345.265625 297 C 345.460938 297 345.644531 296.964844 345.824219 296.890625 C 346.003906 296.816406 346.160156 296.710938 346.296875 296.574219 C 346.433594 296.4375 346.539062 296.28125 346.613281 296.101562 C 346.683594 295.921875 346.722656 295.738281 346.722656 295.542969 L 346.722656 247.988281 L 392.824219 247.988281 L 392.824219 295.542969 C 392.824219 295.738281 392.859375 295.921875 392.933594 296.101562 C 393.007812 296.28125 393.113281 296.4375 393.25 296.574219 C 393.386719 296.710938 393.542969 296.816406 393.722656 296.890625 C 393.898438 296.964844 394.085938 297 394.277344 297 C 394.472656 297 394.65625 296.964844 394.835938 296.890625 C 395.015625 296.816406 395.171875 296.710938 395.308594 296.574219 C 395.445312 296.4375 395.550781 296.28125 395.625 296.101562 C 395.699219 295.921875 395.734375 295.738281 395.734375 295.542969 L 395.734375 247.988281 L 441.835938 247.988281 L 441.835938 295.542969 C 441.835938 295.738281 441.871094 295.921875 441.945312 296.101562 C 442.019531 296.28125 442.125 296.4375 442.261719 296.574219 C 442.398438 296.710938 442.554688 296.816406 442.734375 296.890625 C 442.914062 296.964844 443.097656 297 443.292969 297 C 443.484375 297 443.667969 296.964844 443.847656 296.890625 C 444.027344 296.816406 444.183594 296.710938 444.320312 296.574219 C 444.457031 296.4375 444.5625 296.28125 444.636719 296.101562 C 444.710938 295.921875 444.746094 295.738281 444.746094 295.542969 L 444.746094 247.988281 L 490.855469 247.988281 L 490.855469 295.542969 C 490.855469 295.738281 490.890625 295.921875 490.964844 296.101562 C 491.039062 296.28125 491.144531 296.4375 491.28125 296.574219 C 491.417969 296.710938 491.574219 296.816406 491.753906 296.890625 C 491.933594 296.964844 492.117188 297 492.3125 297 C 492.503906 297 492.6875 296.964844 492.867188 296.890625 C 493.046875 296.816406 493.203125 296.710938 493.339844 296.574219 C 493.476562 296.4375 493.582031 296.28125 493.65625 296.101562 C 493.730469 295.921875 493.765625 295.738281 493.765625 295.542969 L 493.765625 247.988281 L 541.324219 247.988281 C 541.515625 247.988281 541.703125 247.949219 541.878906 247.875 C 542.058594 247.804688 542.214844 247.699219 542.351562 247.5625 C 542.488281 247.425781 542.59375 247.265625 542.667969 247.089844 C 542.742188 246.910156 542.777344 246.726562 542.777344 246.53125 C 542.777344 246.339844 542.742188 246.152344 542.667969 245.976562 C 542.59375 245.796875 542.488281 245.640625 542.351562 245.503906 C 542.214844 245.367188 542.058594 245.261719 541.878906 245.1875 C 541.703125 245.113281 541.515625 245.074219 541.324219 245.074219 L 493.765625 245.074219 L 493.765625 198.96875 L 541.324219 198.96875 C 541.515625 198.96875 541.703125 198.929688 541.878906 198.855469 C 542.058594 198.785156 542.214844 198.679688 542.351562 198.542969 C 542.488281 198.40625 542.59375 198.246094 542.667969 198.070312 C 542.742188 197.890625 542.777344 197.707031 542.777344 197.511719 C 542.777344 197.320312 542.742188 197.132812 542.667969 196.957031 C 542.59375 196.777344 542.488281 196.621094 542.351562 196.484375 C 542.214844 196.347656 542.058594 196.242188 541.878906 196.167969 C 541.703125 196.09375 541.515625 196.054688 541.324219 196.054688 L 493.765625 196.054688 L 493.765625 149.957031 L 541.324219 149.957031 C 541.515625 149.957031 541.703125 149.917969 541.878906 149.84375 C 542.058594 149.769531 542.214844 149.664062 542.351562 149.53125 C 542.488281 149.394531 542.59375 149.234375 542.667969 149.058594 C 542.742188 148.878906 542.777344 148.691406 542.777344 148.5 C 542.777344 148.308594 542.742188 148.121094 542.667969 147.941406 C 542.59375 147.765625 542.488281 147.605469 542.351562 147.46875 C 542.214844 147.335938 542.058594 147.230469 541.878906 147.15625 C 541.703125 147.082031 541.515625 147.042969 541.324219 147.042969 L 493.765625 147.042969 L 493.765625 100.945312 Z M 490.855469 51.925781 L 490.855469 98.03125 L 444.746094 98.03125 L 444.746094 51.925781 Z M 441.835938 51.925781 L 441.835938 98.03125 L 395.734375 98.03125 L 395.734375 51.925781 Z M 392.824219 149.957031 L 392.824219 196.054688 L 346.722656 196.054688 L 346.722656 149.957031 Z M 346.722656 147.042969 L 346.722656 100.945312 L 392.824219 100.945312 L 392.824219 147.042969 Z M 395.734375 149.957031 L 441.835938 149.957031 L 441.835938 196.054688 L 395.734375 196.054688 Z M 395.734375 147.042969 L 395.734375 100.945312 L 441.835938 100.945312 L 441.835938 147.042969 Z M 392.824219 51.925781 L 392.824219 98.03125 L 346.722656 98.03125 L 346.722656 51.925781 Z M 297.703125 51.925781 L 343.8125 51.925781 L 343.8125 98.03125 L 297.703125 98.03125 Z M 297.703125 100.945312 L 343.8125 100.945312 L 343.8125 147.042969 L 297.703125 147.042969 Z M 297.703125 149.957031 L 343.8125 149.957031 L 343.8125 196.054688 L 297.703125 196.054688 Z M 297.703125 245.074219 L 297.703125 198.96875 L 343.8125 198.96875 L 343.8125 245.074219 Z M 346.722656 245.074219 L 346.722656 198.96875 L 392.824219 198.96875 L 392.824219 245.074219 Z M 395.734375 245.074219 L 395.734375 198.96875 L 441.835938 198.96875 L 441.835938 245.074219 Z M 490.855469 245.074219 L 444.746094 245.074219 L 444.746094 198.96875 L 490.855469 198.96875 Z M 490.855469 196.054688 L 444.746094 196.054688 L 444.746094 149.957031 L 490.855469 149.957031 Z M 490.855469 147.042969 L 444.746094 147.042969 L 444.746094 100.945312 L 490.855469 100.945312 Z M 490.855469 147.042969 " fill-opacity="1" fill-rule="nonzero"/></g><g clip-path="url(#038dd5f4ef)"><path fill="#737373" d="M 785.65625 100.945312 C 785.847656 100.945312 786.035156 100.90625 786.214844 100.832031 C 786.390625 100.757812 786.550781 100.652344 786.683594 100.515625 C 786.820312 100.378906 786.925781 100.222656 787 100.042969 C 787.074219 99.867188 787.113281 99.679688 787.113281 99.488281 C 787.113281 99.292969 787.074219 99.109375 787 98.929688 C 786.925781 98.753906 786.820312 98.59375 786.683594 98.457031 C 786.550781 98.320312 786.390625 98.214844 786.214844 98.144531 C 786.035156 98.070312 785.847656 98.03125 785.65625 98.03125 L 738.101562 98.03125 L 738.101562 51.925781 L 785.65625 51.925781 C 785.847656 51.925781 786.035156 51.886719 786.214844 51.8125 C 786.390625 51.738281 786.550781 51.632812 786.683594 51.496094 C 786.820312 51.359375 786.925781 51.203125 787 51.023438 C 787.074219 50.847656 787.113281 50.660156 787.113281 50.46875 C 787.113281 50.273438 787.074219 50.089844 787 49.910156 C 786.925781 49.734375 786.820312 49.574219 786.683594 49.4375 C 786.550781 49.300781 786.390625 49.195312 786.214844 49.125 C 786.035156 49.050781 785.847656 49.011719 785.65625 49.011719 L 738.101562 49.011719 L 738.101562 1.457031 C 738.101562 1.261719 738.0625 1.078125 737.988281 0.898438 C 737.914062 0.71875 737.808594 0.5625 737.671875 0.425781 C 737.535156 0.289062 737.378906 0.183594 737.199219 0.109375 C 737.023438 0.0351562 736.835938 0 736.644531 0 C 736.449219 0 736.265625 0.0351562 736.085938 0.109375 C 735.910156 0.183594 735.75 0.289062 735.613281 0.425781 C 735.476562 0.5625 735.371094 0.71875 735.296875 0.898438 C 735.226562 1.078125 735.1875 1.261719 735.1875 1.457031 L 735.1875 49.011719 L 689.082031 49.011719 L 689.082031 1.457031 C 689.078125 1.261719 689.042969 1.078125 688.96875 0.898438 C 688.894531 0.71875 688.789062 0.5625 688.652344 0.425781 C 688.515625 0.289062 688.359375 0.183594 688.179688 0.109375 C 688.003906 0.0351562 687.816406 0 687.625 0 C 687.429688 0 687.246094 0.0351562 687.066406 0.109375 C 686.886719 0.183594 686.730469 0.289062 686.59375 0.425781 C 686.457031 0.5625 686.351562 0.71875 686.277344 0.898438 C 686.207031 1.078125 686.167969 1.261719 686.167969 1.457031 L 686.167969 49.011719 L 640.066406 49.011719 L 640.066406 1.457031 C 640.066406 1.261719 640.03125 1.078125 639.957031 0.898438 C 639.882812 0.71875 639.777344 0.5625 639.640625 0.425781 C 639.503906 0.289062 639.347656 0.183594 639.167969 0.109375 C 638.992188 0.0351562 638.804688 0 638.613281 0 C 638.417969 0 638.234375 0.0351562 638.054688 0.109375 C 637.875 0.183594 637.71875 0.289062 637.582031 0.425781 C 637.445312 0.5625 637.339844 0.71875 637.265625 0.898438 C 637.191406 1.078125 637.15625 1.261719 637.15625 1.457031 L 637.15625 49.011719 L 591.054688 49.011719 L 591.054688 1.457031 C 591.054688 1.261719 591.019531 1.078125 590.945312 0.898438 C 590.871094 0.71875 590.765625 0.5625 590.628906 0.425781 C 590.492188 0.289062 590.335938 0.183594 590.15625 0.109375 C 589.976562 0.0351562 589.792969 0 589.601562 0 C 589.40625 0 589.222656 0.0351562 589.042969 0.109375 C 588.863281 0.183594 588.707031 0.289062 588.570312 0.425781 C 588.433594 0.5625 588.328125 0.71875 588.253906 0.898438 C 588.179688 1.078125 588.144531 1.261719 588.144531 1.457031 L 588.144531 49.011719 L 542.035156 49.011719 L 542.035156 1.457031 C 542.035156 1.261719 542 1.078125 541.925781 0.898438 C 541.851562 0.71875 541.746094 0.5625 541.609375 0.425781 C 541.472656 0.289062 541.316406 0.183594 541.136719 0.109375 C 540.957031 0.0351562 540.773438 0 540.582031 0 C 540.386719 0 540.203125 0.0351562 540.023438 0.109375 C 539.84375 0.183594 539.6875 0.289062 539.550781 0.425781 C 539.414062 0.5625 539.308594 0.71875 539.234375 0.898438 C 539.160156 1.078125 539.125 1.261719 539.125 1.457031 L 539.125 49.011719 L 491.566406 49.011719 C 491.375 49.011719 491.1875 49.050781 491.011719 49.125 C 490.832031 49.195312 490.675781 49.300781 490.539062 49.4375 C 490.402344 49.574219 490.296875 49.734375 490.222656 49.910156 C 490.148438 50.089844 490.113281 50.273438 490.113281 50.46875 C 490.113281 50.660156 490.148438 50.847656 490.222656 51.023438 C 490.296875 51.203125 490.402344 51.359375 490.539062 51.496094 C 490.675781 51.632812 490.832031 51.738281 491.011719 51.8125 C 491.1875 51.886719 491.375 51.925781 491.566406 51.925781 L 539.125 51.925781 L 539.125 98.03125 L 491.566406 98.03125 C 491.375 98.03125 491.1875 98.070312 491.011719 98.144531 C 490.832031 98.214844 490.675781 98.320312 490.539062 98.457031 C 490.402344 98.59375 490.296875 98.753906 490.222656 98.929688 C 490.148438 99.109375 490.113281 99.292969 490.113281 99.488281 C 490.113281 99.679688 490.148438 99.867188 490.222656 100.042969 C 490.296875 100.222656 490.402344 100.378906 490.539062 100.515625 C 490.675781 100.652344 490.832031 100.757812 491.011719 100.832031 C 491.1875 100.90625 491.375 100.945312 491.566406 100.945312 L 539.125 100.945312 L 539.125 147.042969 L 491.566406 147.042969 C 491.375 147.042969 491.1875 147.082031 491.011719 147.15625 C 490.832031 147.230469 490.675781 147.335938 490.539062 147.46875 C 490.402344 147.605469 490.296875 147.765625 490.222656 147.941406 C 490.148438 148.121094 490.113281 148.308594 490.113281 148.5 C 490.113281 148.691406 490.148438 148.878906 490.222656 149.058594 C 490.296875 149.234375 490.402344 149.394531 490.539062 149.53125 C 490.675781 149.664062 490.832031 149.769531 491.011719 149.84375 C 491.1875 149.917969 491.375 149.957031 491.566406 149.957031 L 539.125 149.957031 L 539.125 196.054688 L 491.566406 196.054688 C 491.375 196.054688 491.1875 196.09375 491.011719 196.167969 C 490.832031 196.242188 490.675781 196.347656 490.539062 196.484375 C 490.402344 196.621094 490.296875 196.777344 490.222656 196.957031 C 490.148438 197.132812 490.113281 197.320312 490.113281 197.511719 C 490.113281 197.707031 490.148438 197.890625 490.222656 198.070312 C 490.296875 198.246094 490.402344 198.40625 490.539062 198.542969 C 490.675781 198.679688 490.832031 198.785156 491.011719 198.855469 C 491.1875 198.929688 491.375 198.96875 491.566406 198.96875 L 539.125 198.96875 L 539.125 245.074219 L 491.566406 245.074219 C 491.375 245.074219 491.1875 245.113281 491.011719 245.1875 C 490.832031 245.261719 490.675781 245.367188 490.539062 245.503906 C 490.402344 245.640625 490.296875 245.796875 490.222656 245.976562 C 490.148438 246.152344 490.113281 246.339844 490.113281 246.53125 C 490.113281 246.726562 490.148438 246.910156 490.222656 247.089844 C 490.296875 247.265625 490.402344 247.425781 490.539062 247.5625 C 490.675781 247.699219 490.832031 247.804688 491.011719 247.875 C 491.1875 247.949219 491.375 247.988281 491.566406 247.988281 L 539.125 247.988281 L 539.125 295.542969 C 539.125 295.738281 539.160156 295.921875 539.234375 296.101562 C 539.308594 296.28125 539.414062 296.4375 539.550781 296.574219 C 539.6875 296.710938 539.84375 296.816406 540.023438 296.890625 C 540.203125 296.964844 540.386719 297 540.582031 297 C 540.773438 297 540.957031 296.964844 541.136719 296.890625 C 541.316406 296.816406 541.472656 296.710938 541.609375 296.574219 C 541.746094 296.4375 541.851562 296.28125 541.925781 296.101562 C 542 295.921875 542.035156 295.738281 542.035156 295.542969 L 542.035156 247.988281 L 588.144531 247.988281 L 588.144531 295.542969 C 588.144531 295.738281 588.179688 295.921875 588.253906 296.101562 C 588.328125 296.28125 588.433594 296.4375 588.570312 296.574219 C 588.707031 296.710938 588.863281 296.816406 589.042969 296.890625 C 589.222656 296.964844 589.40625 297 589.601562 297 C 589.792969 297 589.976562 296.964844 590.15625 296.890625 C 590.335938 296.816406 590.492188 296.710938 590.628906 296.574219 C 590.765625 296.4375 590.871094 296.28125 590.945312 296.101562 C 591.019531 295.921875 591.054688 295.738281 591.054688 295.542969 L 591.054688 247.988281 L 637.15625 247.988281 L 637.15625 295.542969 C 637.15625 295.738281 637.191406 295.921875 637.265625 296.101562 C 637.339844 296.28125 637.445312 296.4375 637.582031 296.574219 C 637.71875 296.710938 637.875 296.816406 638.054688 296.890625 C 638.234375 296.964844 638.417969 297 638.613281 297 C 638.804688 297 638.992188 296.964844 639.167969 296.890625 C 639.347656 296.816406 639.503906 296.710938 639.640625 296.574219 C 639.777344 296.4375 639.882812 296.28125 639.957031 296.101562 C 640.03125 295.921875 640.066406 295.738281 640.066406 295.542969 L 640.066406 247.988281 L 686.167969 247.988281 L 686.167969 295.542969 C 686.167969 295.738281 686.207031 295.921875 686.277344 296.101562 C 686.351562 296.28125 686.457031 296.4375 686.59375 296.574219 C 686.730469 296.710938 686.890625 296.816406 687.066406 296.890625 C 687.246094 296.964844 687.429688 297 687.625 297 C 687.816406 297 688.003906 296.964844 688.179688 296.890625 C 688.359375 296.816406 688.515625 296.710938 688.652344 296.574219 C 688.789062 296.4375 688.894531 296.28125 688.96875 296.101562 C 689.042969 295.921875 689.082031 295.738281 689.082031 295.542969 L 689.082031 247.988281 L 735.1875 247.988281 L 735.1875 295.542969 C 735.1875 295.738281 735.226562 295.921875 735.296875 296.101562 C 735.371094 296.28125 735.476562 296.4375 735.613281 296.574219 C 735.75 296.710938 735.910156 296.816406 736.085938 296.890625 C 736.265625 296.964844 736.449219 297 736.644531 297 C 736.835938 297 737.023438 296.964844 737.199219 296.890625 C 737.378906 296.816406 737.535156 296.710938 737.671875 296.574219 C 737.808594 296.4375 737.914062 296.28125 737.988281 296.101562 C 738.0625 295.921875 738.101562 295.738281 738.101562 295.542969 L 738.101562 247.988281 L 785.65625 247.988281 C 785.847656 247.988281 786.035156 247.949219 786.214844 247.875 C 786.390625 247.804688 786.550781 247.699219 786.683594 247.5625 C 786.820312 247.425781 786.925781 247.265625 787 247.089844 C 787.074219 246.910156 787.113281 246.726562 787.113281 246.53125 C 787.113281 246.339844 787.074219 246.152344 787 245.976562 C 786.925781 245.796875 786.820312 245.640625 786.683594 245.503906 C 786.550781 245.367188 786.390625 245.261719 786.214844 245.1875 C 786.035156 245.113281 785.847656 245.074219 785.65625 245.074219 L 738.101562 245.074219 L 738.101562 198.96875 L 785.65625 198.96875 C 785.847656 198.96875 786.035156 198.929688 786.214844 198.855469 C 786.390625 198.785156 786.550781 198.679688 786.683594 198.542969 C 786.820312 198.40625 786.925781 198.246094 787 198.070312 C 787.074219 197.890625 787.113281 197.707031 787.113281 197.511719 C 787.113281 197.320312 787.074219 197.132812 787 196.957031 C 786.925781 196.777344 786.820312 196.621094 786.683594 196.484375 C 786.550781 196.347656 786.390625 196.242188 786.214844 196.167969 C 786.035156 196.09375 785.847656 196.054688 785.65625 196.054688 L 738.101562 196.054688 L 738.101562 149.957031 L 785.65625 149.957031 C 785.847656 149.957031 786.035156 149.917969 786.214844 149.84375 C 786.390625 149.769531 786.550781 149.664062 786.683594 149.53125 C 786.820312 149.394531 786.925781 149.234375 787 149.058594 C 787.074219 148.878906 787.113281 148.691406 787.113281 148.5 C 787.113281 148.308594 787.074219 148.121094 787 147.941406 C 786.925781 147.765625 786.820312 147.605469 786.683594 147.46875 C 786.550781 147.335938 786.390625 147.230469 786.214844 147.15625 C 786.035156 147.082031 785.847656 147.042969 785.65625 147.042969 L 738.101562 147.042969 L 738.101562 100.945312 Z M 735.1875 51.925781 L 735.1875 98.03125 L 689.082031 98.03125 L 689.082031 51.925781 Z M 686.167969 51.925781 L 686.167969 98.03125 L 640.066406 98.03125 L 640.066406 51.925781 Z M 637.15625 149.957031 L 637.15625 196.054688 L 591.054688 196.054688 L 591.054688 149.957031 Z M 591.054688 147.042969 L 591.054688 100.945312 L 637.15625 100.945312 L 637.15625 147.042969 Z M 640.066406 149.957031 L 686.167969 149.957031 L 686.167969 196.054688 L 640.066406 196.054688 Z M 640.066406 147.042969 L 640.066406 100.945312 L 686.167969 100.945312 L 686.167969 147.042969 Z M 637.15625 51.925781 L 637.15625 98.03125 L 591.054688 98.03125 L 591.054688 51.925781 Z M 542.035156 51.925781 L 588.144531 51.925781 L 588.144531 98.03125 L 542.035156 98.03125 Z M 542.035156 100.945312 L 588.144531 100.945312 L 588.144531 147.042969 L 542.035156 147.042969 Z M 542.035156 149.957031 L 588.144531 149.957031 L 588.144531 196.054688 L 542.035156 196.054688 Z M 542.035156 245.074219 L 542.035156 198.96875 L 588.144531 198.96875 L 588.144531 245.074219 Z M 591.054688 245.074219 L 591.054688 198.96875 L 637.15625 198.96875 L 637.15625 245.074219 Z M 640.066406 245.074219 L 640.066406 198.96875 L 686.167969 198.96875 L 686.167969 245.074219 Z M 735.1875 245.074219 L 689.082031 245.074219 L 689.082031 198.96875 L 735.1875 198.96875 Z M 735.1875 196.054688 L 689.082031 196.054688 L 689.082031 149.957031 L 735.1875 149.957031 Z M 735.1875 147.042969 L 689.082031 147.042969 L 689.082031 100.945312 L 735.1875 100.945312 Z M 735.1875 147.042969 " fill-opacity="1" fill-rule="nonzero"/></g><g clip-path="url(#0cc1cb85a3)"><path fill="#737373" d="M 1029.597656 100.945312 C 1029.789062 100.945312 1029.976562 100.90625 1030.152344 100.832031 C 1030.332031 100.757812 1030.488281 100.652344 1030.625 100.515625 C 1030.761719 100.378906 1030.867188 100.222656 1030.941406 100.042969 C 1031.015625 99.867188 1031.054688 99.679688 1031.054688 99.488281 C 1031.054688 99.292969 1031.015625 99.109375 1030.941406 98.929688 C 1030.867188 98.753906 1030.761719 98.59375 1030.625 98.457031 C 1030.488281 98.320312 1030.332031 98.214844 1030.152344 98.144531 C 1029.976562 98.070312 1029.789062 98.03125 1029.597656 98.03125 L 982.039062 98.03125 L 982.039062 51.925781 L 1029.597656 51.925781 C 1029.789062 51.925781 1029.976562 51.886719 1030.152344 51.8125 C 1030.332031 51.738281 1030.488281 51.632812 1030.625 51.496094 C 1030.761719 51.359375 1030.867188 51.203125 1030.941406 51.023438 C 1031.015625 50.847656 1031.054688 50.660156 1031.054688 50.46875 C 1031.054688 50.273438 1031.015625 50.089844 1030.941406 49.910156 C 1030.867188 49.734375 1030.761719 49.574219 1030.625 49.4375 C 1030.488281 49.300781 1030.332031 49.195312 1030.152344 49.125 C 1029.976562 49.050781 1029.789062 49.011719 1029.597656 49.011719 L 982.039062 49.011719 L 982.039062 1.457031 C 982.039062 1.261719 982.003906 1.078125 981.929688 0.898438 C 981.855469 0.71875 981.75 0.5625 981.613281 0.425781 C 981.476562 0.289062 981.320312 0.183594 981.140625 0.109375 C 980.964844 0.0351562 980.777344 0 980.585938 0 C 980.390625 0 980.207031 0.0351562 980.027344 0.109375 C 979.847656 0.183594 979.691406 0.289062 979.554688 0.425781 C 979.417969 0.5625 979.3125 0.71875 979.238281 0.898438 C 979.164062 1.078125 979.128906 1.261719 979.128906 1.457031 L 979.128906 49.011719 L 933.019531 49.011719 L 933.019531 1.457031 C 933.019531 1.261719 932.984375 1.078125 932.910156 0.898438 C 932.835938 0.71875 932.730469 0.5625 932.59375 0.425781 C 932.457031 0.289062 932.300781 0.183594 932.121094 0.109375 C 931.945312 0.0351562 931.757812 0 931.566406 0 C 931.371094 0 931.1875 0.0351562 931.007812 0.109375 C 930.828125 0.183594 930.671875 0.289062 930.535156 0.425781 C 930.398438 0.5625 930.292969 0.71875 930.21875 0.898438 C 930.144531 1.078125 930.109375 1.261719 930.109375 1.457031 L 930.109375 49.011719 L 884.007812 49.011719 L 884.007812 1.457031 C 884.007812 1.261719 883.972656 1.078125 883.898438 0.898438 C 883.824219 0.71875 883.71875 0.5625 883.582031 0.425781 C 883.445312 0.289062 883.289062 0.183594 883.109375 0.109375 C 882.929688 0.0351562 882.746094 0 882.554688 0 C 882.359375 0 882.175781 0.0351562 881.996094 0.109375 C 881.816406 0.183594 881.660156 0.289062 881.523438 0.425781 C 881.386719 0.5625 881.28125 0.71875 881.207031 0.898438 C 881.132812 1.078125 881.097656 1.261719 881.097656 1.457031 L 881.097656 49.011719 L 834.996094 49.011719 L 834.996094 1.457031 C 834.996094 1.261719 834.960938 1.078125 834.886719 0.898438 C 834.8125 0.71875 834.707031 0.5625 834.570312 0.425781 C 834.433594 0.289062 834.277344 0.183594 834.097656 0.109375 C 833.917969 0.0351562 833.734375 0 833.539062 0 C 833.347656 0 833.160156 0.0351562 832.984375 0.109375 C 832.804688 0.183594 832.648438 0.289062 832.511719 0.425781 C 832.375 0.5625 832.269531 0.71875 832.195312 0.898438 C 832.121094 1.078125 832.085938 1.261719 832.085938 1.457031 L 832.085938 49.011719 L 785.976562 49.011719 L 785.976562 1.457031 C 785.976562 1.261719 785.941406 1.078125 785.867188 0.898438 C 785.792969 0.71875 785.6875 0.5625 785.550781 0.425781 C 785.414062 0.289062 785.257812 0.183594 785.078125 0.109375 C 784.898438 0.0351562 784.714844 0 784.519531 0 C 784.328125 0 784.140625 0.0351562 783.964844 0.109375 C 783.785156 0.183594 783.628906 0.289062 783.492188 0.425781 C 783.355469 0.5625 783.25 0.71875 783.175781 0.898438 C 783.101562 1.078125 783.066406 1.261719 783.066406 1.457031 L 783.066406 49.011719 L 735.507812 49.011719 C 735.316406 49.011719 735.128906 49.050781 734.953125 49.125 C 734.773438 49.195312 734.617188 49.300781 734.480469 49.4375 C 734.34375 49.574219 734.238281 49.734375 734.164062 49.910156 C 734.089844 50.089844 734.054688 50.273438 734.054688 50.46875 C 734.054688 50.660156 734.089844 50.847656 734.164062 51.023438 C 734.238281 51.203125 734.34375 51.359375 734.480469 51.496094 C 734.617188 51.632812 734.773438 51.738281 734.953125 51.8125 C 735.128906 51.886719 735.316406 51.925781 735.507812 51.925781 L 783.066406 51.925781 L 783.066406 98.03125 L 735.507812 98.03125 C 735.316406 98.03125 735.128906 98.070312 734.953125 98.144531 C 734.773438 98.214844 734.617188 98.320312 734.480469 98.457031 C 734.34375 98.59375 734.238281 98.753906 734.164062 98.929688 C 734.089844 99.109375 734.054688 99.292969 734.054688 99.488281 C 734.054688 99.679688 734.089844 99.867188 734.164062 100.042969 C 734.238281 100.222656 734.34375 100.378906 734.480469 100.515625 C 734.617188 100.652344 734.773438 100.757812 734.953125 100.832031 C 735.128906 100.90625 735.316406 100.945312 735.507812 100.945312 L 783.066406 100.945312 L 783.066406 147.042969 L 735.507812 147.042969 C 735.316406 147.042969 735.128906 147.082031 734.953125 147.15625 C 734.773438 147.230469 734.617188 147.335938 734.480469 147.46875 C 734.34375 147.605469 734.238281 147.765625 734.164062 147.941406 C 734.089844 148.121094 734.054688 148.308594 734.054688 148.5 C 734.054688 148.691406 734.089844 148.878906 734.164062 149.058594 C 734.238281 149.234375 734.34375 149.394531 734.480469 149.53125 C 734.617188 149.664062 734.773438 149.769531 734.953125 149.84375 C 735.128906 149.917969 735.316406 149.957031 735.507812 149.957031 L 783.066406 149.957031 L 783.066406 196.054688 L 735.507812 196.054688 C 735.316406 196.054688 735.128906 196.09375 734.953125 196.167969 C 734.773438 196.242188 734.617188 196.347656 734.480469 196.484375 C 734.34375 196.621094 734.238281 196.777344 734.164062 196.957031 C 734.089844 197.132812 734.054688 197.320312 734.054688 197.511719 C 734.054688 197.707031 734.089844 197.890625 734.164062 198.070312 C 734.238281 198.246094 734.34375 198.40625 734.480469 198.542969 C 734.617188 198.679688 734.773438 198.785156 734.953125 198.855469 C 735.128906 198.929688 735.316406 198.96875 735.507812 198.96875 L 783.066406 198.96875 L 783.066406 245.074219 L 735.507812 245.074219 C 735.316406 245.074219 735.128906 245.113281 734.953125 245.1875 C 734.773438 245.261719 734.617188 245.367188 734.480469 245.503906 C 734.34375 245.640625 734.238281 245.796875 734.164062 245.976562 C 734.089844 246.152344 734.054688 246.339844 734.054688 246.53125 C 734.054688 246.726562 734.089844 246.910156 734.164062 247.089844 C 734.238281 247.265625 734.34375 247.425781 734.480469 247.5625 C 734.617188 247.699219 734.773438 247.804688 734.953125 247.875 C 735.128906 247.949219 735.316406 247.988281 735.507812 247.988281 L 783.066406 247.988281 L 783.066406 295.542969 C 783.066406 295.738281 783.101562 295.921875 783.175781 296.101562 C 783.25 296.28125 783.355469 296.4375 783.492188 296.574219 C 783.628906 296.710938 783.785156 296.816406 783.964844 296.890625 C 784.140625 296.964844 784.328125 297 784.519531 297 C 784.714844 297 784.898438 296.964844 785.078125 296.890625 C 785.257812 296.816406 785.414062 296.710938 785.550781 296.574219 C 785.6875 296.4375 785.792969 296.28125 785.867188 296.101562 C 785.941406 295.921875 785.976562 295.738281 785.976562 295.542969 L 785.976562 247.988281 L 832.085938 247.988281 L 832.085938 295.542969 C 832.085938 295.738281 832.121094 295.921875 832.195312 296.101562 C 832.269531 296.28125 832.375 296.4375 832.511719 296.574219 C 832.648438 296.710938 832.804688 296.816406 832.984375 296.890625 C 833.160156 296.964844 833.347656 297 833.539062 297 C 833.734375 297 833.917969 296.964844 834.097656 296.890625 C 834.277344 296.816406 834.433594 296.710938 834.570312 296.574219 C 834.707031 296.4375 834.8125 296.28125 834.886719 296.101562 C 834.960938 295.921875 834.996094 295.738281 834.996094 295.542969 L 834.996094 247.988281 L 881.097656 247.988281 L 881.097656 295.542969 C 881.097656 295.738281 881.132812 295.921875 881.207031 296.101562 C 881.28125 296.28125 881.386719 296.4375 881.523438 296.574219 C 881.660156 296.710938 881.816406 296.816406 881.996094 296.890625 C 882.175781 296.964844 882.359375 297 882.554688 297 C 882.746094 297 882.929688 296.964844 883.109375 296.890625 C 883.289062 296.816406 883.445312 296.710938 883.582031 296.574219 C 883.71875 296.4375 883.824219 296.28125 883.898438 296.101562 C 883.972656 295.921875 884.007812 295.738281 884.007812 295.542969 L 884.007812 247.988281 L 930.109375 247.988281 L 930.109375 295.542969 C 930.109375 295.738281 930.144531 295.921875 930.21875 296.101562 C 930.292969 296.28125 930.398438 296.4375 930.535156 296.574219 C 930.671875 296.710938 930.828125 296.816406 931.007812 296.890625 C 931.1875 296.964844 931.371094 297 931.566406 297 C 931.757812 297 931.945312 296.964844 932.121094 296.890625 C 932.300781 296.816406 932.457031 296.710938 932.59375 296.574219 C 932.730469 296.4375 932.835938 296.28125 932.910156 296.101562 C 932.984375 295.921875 933.019531 295.738281 933.019531 295.542969 L 933.019531 247.988281 L 979.128906 247.988281 L 979.128906 295.542969 C 979.128906 295.738281 979.164062 295.921875 979.238281 296.101562 C 979.3125 296.28125 979.417969 296.4375 979.554688 296.574219 C 979.691406 296.710938 979.847656 296.816406 980.027344 296.890625 C 980.207031 296.964844 980.390625 297 980.585938 297 C 980.777344 297 980.964844 296.964844 981.140625 296.890625 C 981.320312 296.816406 981.476562 296.710938 981.613281 296.574219 C 981.75 296.4375 981.855469 296.28125 981.929688 296.101562 C 982.003906 295.921875 982.039062 295.738281 982.039062 295.542969 L 982.039062 247.988281 L 1029.597656 247.988281 C 1029.789062 247.988281 1029.976562 247.949219 1030.152344 247.875 C 1030.332031 247.804688 1030.488281 247.699219 1030.625 247.5625 C 1030.761719 247.425781 1030.867188 247.265625 1030.941406 247.089844 C 1031.015625 246.910156 1031.054688 246.726562 1031.054688 246.53125 C 1031.054688 246.339844 1031.015625 246.152344 1030.941406 245.976562 C 1030.867188 245.796875 1030.761719 245.640625 1030.625 245.503906 C 1030.488281 245.367188 1030.332031 245.261719 1030.152344 245.1875 C 1029.976562 245.113281 1029.789062 245.074219 1029.597656 245.074219 L 982.039062 245.074219 L 982.039062 198.96875 L 1029.597656 198.96875 C 1029.789062 198.96875 1029.976562 198.929688 1030.152344 198.855469 C 1030.332031 198.785156 1030.488281 198.679688 1030.625 198.542969 C 1030.761719 198.40625 1030.867188 198.246094 1030.941406 198.070312 C 1031.015625 197.890625 1031.054688 197.707031 1031.054688 197.511719 C 1031.054688 197.320312 1031.015625 197.132812 1030.941406 196.957031 C 1030.867188 196.777344 1030.761719 196.621094 1030.625 196.484375 C 1030.488281 196.347656 1030.332031 196.242188 1030.152344 196.167969 C 1029.976562 196.09375 1029.789062 196.054688 1029.597656 196.054688 L 982.039062 196.054688 L 982.039062 149.957031 L 1029.597656 149.957031 C 1029.789062 149.957031 1029.976562 149.917969 1030.152344 149.84375 C 1030.332031 149.769531 1030.488281 149.664062 1030.625 149.53125 C 1030.761719 149.394531 1030.867188 149.234375 1030.941406 149.058594 C 1031.015625 148.878906 1031.054688 148.691406 1031.054688 148.5 C 1031.054688 148.308594 1031.015625 148.121094 1030.941406 147.941406 C 1030.867188 147.765625 1030.761719 147.605469 1030.625 147.46875 C 1030.488281 147.335938 1030.332031 147.230469 1030.152344 147.15625 C 1029.976562 147.082031 1029.789062 147.042969 1029.597656 147.042969 L 982.039062 147.042969 L 982.039062 100.945312 Z M 979.128906 51.925781 L 979.128906 98.03125 L 933.019531 98.03125 L 933.019531 51.925781 Z M 930.109375 51.925781 L 930.109375 98.03125 L 884.007812 98.03125 L 884.007812 51.925781 Z M 881.097656 149.957031 L 881.097656 196.054688 L 834.996094 196.054688 L 834.996094 149.957031 Z M 834.996094 147.042969 L 834.996094 100.945312 L 881.097656 100.945312 L 881.097656 147.042969 Z M 884.007812 149.957031 L 930.109375 149.957031 L 930.109375 196.054688 L 884.007812 196.054688 Z M 884.007812 147.042969 L 884.007812 100.945312 L 930.109375 100.945312 L 930.109375 147.042969 Z M 881.097656 51.925781 L 881.097656 98.03125 L 834.996094 98.03125 L 834.996094 51.925781 Z M 785.976562 51.925781 L 832.085938 51.925781 L 832.085938 98.03125 L 785.976562 98.03125 Z M 785.976562 100.945312 L 832.085938 100.945312 L 832.085938 147.042969 L 785.976562 147.042969 Z M 785.976562 149.957031 L 832.085938 149.957031 L 832.085938 196.054688 L 785.976562 196.054688 Z M 785.976562 245.074219 L 785.976562 198.96875 L 832.085938 198.96875 L 832.085938 245.074219 Z M 834.996094 245.074219 L 834.996094 198.96875 L 881.097656 198.96875 L 881.097656 245.074219 Z M 884.007812 245.074219 L 884.007812 198.96875 L 930.109375 198.96875 L 930.109375 245.074219 Z M 979.128906 245.074219 L 933.019531 245.074219 L 933.019531 198.96875 L 979.128906 198.96875 Z M 979.128906 196.054688 L 933.019531 196.054688 L 933.019531 149.957031 L 979.128906 149.957031 Z M 979.128906 147.042969 L 933.019531 147.042969 L 933.019531 100.945312 L 979.128906 100.945312 Z M 979.128906 147.042969 " fill-opacity="1" fill-rule="nonzero"/></g><g clip-path="url(#5249b9793d)"><path fill="#737373" d="M 1275.40625 100.945312 C 1275.597656 100.945312 1275.785156 100.90625 1275.964844 100.832031 C 1276.140625 100.757812 1276.300781 100.652344 1276.433594 100.515625 C 1276.570312 100.378906 1276.675781 100.222656 1276.75 100.042969 C 1276.824219 99.867188 1276.863281 99.679688 1276.863281 99.488281 C 1276.863281 99.292969 1276.824219 99.109375 1276.75 98.929688 C 1276.675781 98.753906 1276.570312 98.59375 1276.433594 98.457031 C 1276.300781 98.320312 1276.140625 98.214844 1275.964844 98.144531 C 1275.785156 98.070312 1275.597656 98.03125 1275.40625 98.03125 L 1227.851562 98.03125 L 1227.851562 51.925781 L 1275.40625 51.925781 C 1275.597656 51.925781 1275.785156 51.886719 1275.964844 51.8125 C 1276.140625 51.738281 1276.300781 51.632812 1276.433594 51.496094 C 1276.570312 51.359375 1276.675781 51.203125 1276.75 51.023438 C 1276.824219 50.847656 1276.863281 50.660156 1276.863281 50.46875 C 1276.863281 50.273438 1276.824219 50.089844 1276.75 49.910156 C 1276.675781 49.734375 1276.570312 49.574219 1276.433594 49.4375 C 1276.300781 49.300781 1276.140625 49.195312 1275.964844 49.125 C 1275.785156 49.050781 1275.597656 49.011719 1275.40625 49.011719 L 1227.851562 49.011719 L 1227.851562 1.457031 C 1227.851562 1.261719 1227.8125 1.078125 1227.738281 0.898438 C 1227.664062 0.71875 1227.558594 0.5625 1227.421875 0.425781 C 1227.285156 0.289062 1227.128906 0.183594 1226.949219 0.109375 C 1226.773438 0.0351562 1226.585938 0 1226.394531 0 C 1226.199219 0 1226.015625 0.0351562 1225.835938 0.109375 C 1225.660156 0.183594 1225.5 0.289062 1225.363281 0.425781 C 1225.226562 0.5625 1225.121094 0.71875 1225.046875 0.898438 C 1224.976562 1.078125 1224.9375 1.261719 1224.9375 1.457031 L 1224.9375 49.011719 L 1178.832031 49.011719 L 1178.832031 1.457031 C 1178.828125 1.261719 1178.792969 1.078125 1178.71875 0.898438 C 1178.644531 0.71875 1178.539062 0.5625 1178.402344 0.425781 C 1178.265625 0.289062 1178.109375 0.183594 1177.929688 0.109375 C 1177.753906 0.0351562 1177.566406 0 1177.375 0 C 1177.179688 0 1176.996094 0.0351562 1176.816406 0.109375 C 1176.636719 0.183594 1176.480469 0.289062 1176.34375 0.425781 C 1176.207031 0.5625 1176.101562 0.71875 1176.027344 0.898438 C 1175.957031 1.078125 1175.917969 1.261719 1175.917969 1.457031 L 1175.917969 49.011719 L 1129.816406 49.011719 L 1129.816406 1.457031 C 1129.816406 1.261719 1129.78125 1.078125 1129.707031 0.898438 C 1129.632812 0.71875 1129.527344 0.5625 1129.390625 0.425781 C 1129.253906 0.289062 1129.097656 0.183594 1128.917969 0.109375 C 1128.742188 0.0351562 1128.554688 0 1128.363281 0 C 1128.167969 0 1127.984375 0.0351562 1127.804688 0.109375 C 1127.625 0.183594 1127.46875 0.289062 1127.332031 0.425781 C 1127.195312 0.5625 1127.089844 0.71875 1127.015625 0.898438 C 1126.941406 1.078125 1126.90625 1.261719 1126.90625 1.457031 L 1126.90625 49.011719 L 1080.804688 49.011719 L 1080.804688 1.457031 C 1080.804688 1.261719 1080.769531 1.078125 1080.695312 0.898438 C 1080.621094 0.71875 1080.515625 0.5625 1080.378906 0.425781 C 1080.242188 0.289062 1080.085938 0.183594 1079.90625 0.109375 C 1079.726562 0.0351562 1079.542969 0 1079.351562 0 C 1079.15625 0 1078.972656 0.0351562 1078.792969 0.109375 C 1078.613281 0.183594 1078.457031 0.289062 1078.320312 0.425781 C 1078.183594 0.5625 1078.078125 0.71875 1078.003906 0.898438 C 1077.929688 1.078125 1077.894531 1.261719 1077.894531 1.457031 L 1077.894531 49.011719 L 1031.785156 49.011719 L 1031.785156 1.457031 C 1031.785156 1.261719 1031.75 1.078125 1031.675781 0.898438 C 1031.601562 0.71875 1031.496094 0.5625 1031.359375 0.425781 C 1031.222656 0.289062 1031.066406 0.183594 1030.886719 0.109375 C 1030.707031 0.0351562 1030.523438 0 1030.332031 0 C 1030.136719 0 1029.953125 0.0351562 1029.773438 0.109375 C 1029.59375 0.183594 1029.4375 0.289062 1029.300781 0.425781 C 1029.164062 0.5625 1029.058594 0.71875 1028.984375 0.898438 C 1028.910156 1.078125 1028.875 1.261719 1028.875 1.457031 L 1028.875 49.011719 L 981.316406 49.011719 C 981.125 49.011719 980.9375 49.050781 980.761719 49.125 C 980.582031 49.195312 980.425781 49.300781 980.289062 49.4375 C 980.152344 49.574219 980.046875 49.734375 979.972656 49.910156 C 979.898438 50.089844 979.863281 50.273438 979.863281 50.46875 C 979.863281 50.660156 979.898438 50.847656 979.972656 51.023438 C 980.046875 51.203125 980.152344 51.359375 980.289062 51.496094 C 980.425781 51.632812 980.582031 51.738281 980.761719 51.8125 C 980.9375 51.886719 981.125 51.925781 981.316406 51.925781 L 1028.875 51.925781 L 1028.875 98.03125 L 981.316406 98.03125 C 981.125 98.03125 980.9375 98.070312 980.761719 98.144531 C 980.582031 98.214844 980.425781 98.320312 980.289062 98.457031 C 980.152344 98.59375 980.046875 98.753906 979.972656 98.929688 C 979.898438 99.109375 979.863281 99.292969 979.863281 99.488281 C 979.863281 99.679688 979.898438 99.867188 979.972656 100.042969 C 980.046875 100.222656 980.152344 100.378906 980.289062 100.515625 C 980.425781 100.652344 980.582031 100.757812 980.761719 100.832031 C 980.9375 100.90625 981.125 100.945312 981.316406 100.945312 L 1028.875 100.945312 L 1028.875 147.042969 L 981.316406 147.042969 C 981.125 147.042969 980.9375 147.082031 980.761719 147.15625 C 980.582031 147.230469 980.425781 147.335938 980.289062 147.46875 C 980.152344 147.605469 980.046875 147.765625 979.972656 147.941406 C 979.898438 148.121094 979.863281 148.308594 979.863281 148.5 C 979.863281 148.691406 979.898438 148.878906 979.972656 149.058594 C 980.046875 149.234375 980.152344 149.394531 980.289062 149.53125 C 980.425781 149.664062 980.582031 149.769531 980.761719 149.84375 C 980.9375 149.917969 981.125 149.957031 981.316406 149.957031 L 1028.875 149.957031 L 1028.875 196.054688 L 981.316406 196.054688 C 981.125 196.054688 980.9375 196.09375 980.761719 196.167969 C 980.582031 196.242188 980.425781 196.347656 980.289062 196.484375 C 980.152344 196.621094 980.046875 196.777344 979.972656 196.957031 C 979.898438 197.132812 979.863281 197.320312 979.863281 197.511719 C 979.863281 197.707031 979.898438 197.890625 979.972656 198.070312 C 980.046875 198.246094 980.152344 198.40625 980.289062 198.542969 C 980.425781 198.679688 980.582031 198.785156 980.761719 198.855469 C 980.9375 198.929688 981.125 198.96875 981.316406 198.96875 L 1028.875 198.96875 L 1028.875 245.074219 L 981.316406 245.074219 C 981.125 245.074219 980.9375 245.113281 980.761719 245.1875 C 980.582031 245.261719 980.425781 245.367188 980.289062 245.503906 C 980.152344 245.640625 980.046875 245.796875 979.972656 245.976562 C 979.898438 246.152344 979.863281 246.339844 979.863281 246.53125 C 979.863281 246.726562 979.898438 246.910156 979.972656 247.089844 C 980.046875 247.265625 980.152344 247.425781 980.289062 247.5625 C 980.425781 247.699219 980.582031 247.804688 980.761719 247.875 C 980.9375 247.949219 981.125 247.988281 981.316406 247.988281 L 1028.875 247.988281 L 1028.875 295.542969 C 1028.875 295.738281 1028.910156 295.921875 1028.984375 296.101562 C 1029.058594 296.28125 1029.164062 296.4375 1029.300781 296.574219 C 1029.4375 296.710938 1029.59375 296.816406 1029.773438 296.890625 C 1029.953125 296.964844 1030.136719 297 1030.332031 297 C 1030.523438 297 1030.707031 296.964844 1030.886719 296.890625 C 1031.066406 296.816406 1031.222656 296.710938 1031.359375 296.574219 C 1031.496094 296.4375 1031.601562 296.28125 1031.675781 296.101562 C 1031.75 295.921875 1031.785156 295.738281 1031.785156 295.542969 L 1031.785156 247.988281 L 1077.894531 247.988281 L 1077.894531 295.542969 C 1077.894531 295.738281 1077.929688 295.921875 1078.003906 296.101562 C 1078.078125 296.28125 1078.183594 296.4375 1078.320312 296.574219 C 1078.457031 296.710938 1078.613281 296.816406 1078.792969 296.890625 C 1078.972656 296.964844 1079.15625 297 1079.351562 297 C 1079.542969 297 1079.726562 296.964844 1079.90625 296.890625 C 1080.085938 296.816406 1080.242188 296.710938 1080.378906 296.574219 C 1080.515625 296.4375 1080.621094 296.28125 1080.695312 296.101562 C 1080.769531 295.921875 1080.804688 295.738281 1080.804688 295.542969 L 1080.804688 247.988281 L 1126.90625 247.988281 L 1126.90625 295.542969 C 1126.90625 295.738281 1126.941406 295.921875 1127.015625 296.101562 C 1127.089844 296.28125 1127.195312 296.4375 1127.332031 296.574219 C 1127.46875 296.710938 1127.625 296.816406 1127.804688 296.890625 C 1127.984375 296.964844 1128.167969 297 1128.363281 297 C 1128.554688 297 1128.742188 296.964844 1128.917969 296.890625 C 1129.097656 296.816406 1129.253906 296.710938 1129.390625 296.574219 C 1129.527344 296.4375 1129.632812 296.28125 1129.707031 296.101562 C 1129.78125 295.921875 1129.816406 295.738281 1129.816406 295.542969 L 1129.816406 247.988281 L 1175.917969 247.988281 L 1175.917969 295.542969 C 1175.917969 295.738281 1175.957031 295.921875 1176.027344 296.101562 C 1176.101562 296.28125 1176.207031 296.4375 1176.34375 296.574219 C 1176.480469 296.710938 1176.640625 296.816406 1176.816406 296.890625 C 1176.996094 296.964844 1177.179688 297 1177.375 297 C 1177.566406 297 1177.753906 296.964844 1177.929688 296.890625 C 1178.109375 296.816406 1178.265625 296.710938 1178.402344 296.574219 C 1178.539062 296.4375 1178.644531 296.28125 1178.71875 296.101562 C 1178.792969 295.921875 1178.832031 295.738281 1178.832031 295.542969 L 1178.832031 247.988281 L 1224.9375 247.988281 L 1224.9375 295.542969 C 1224.9375 295.738281 1224.976562 295.921875 1225.046875 296.101562 C 1225.121094 296.28125 1225.226562 296.4375 1225.363281 296.574219 C 1225.5 296.710938 1225.660156 296.816406 1225.835938 296.890625 C 1226.015625 296.964844 1226.199219 297 1226.394531 297 C 1226.585938 297 1226.773438 296.964844 1226.949219 296.890625 C 1227.128906 296.816406 1227.285156 296.710938 1227.421875 296.574219 C 1227.558594 296.4375 1227.664062 296.28125 1227.738281 296.101562 C 1227.8125 295.921875 1227.851562 295.738281 1227.851562 295.542969 L 1227.851562 247.988281 L 1275.40625 247.988281 C 1275.597656 247.988281 1275.785156 247.949219 1275.964844 247.875 C 1276.140625 247.804688 1276.300781 247.699219 1276.433594 247.5625 C 1276.570312 247.425781 1276.675781 247.265625 1276.75 247.089844 C 1276.824219 246.910156 1276.863281 246.726562 1276.863281 246.53125 C 1276.863281 246.339844 1276.824219 246.152344 1276.75 245.976562 C 1276.675781 245.796875 1276.570312 245.640625 1276.433594 245.503906 C 1276.300781 245.367188 1276.140625 245.261719 1275.964844 245.1875 C 1275.785156 245.113281 1275.597656 245.074219 1275.40625 245.074219 L 1227.851562 245.074219 L 1227.851562 198.96875 L 1275.40625 198.96875 C 1275.597656 198.96875 1275.785156 198.929688 1275.964844 198.855469 C 1276.140625 198.785156 1276.300781 198.679688 1276.433594 198.542969 C 1276.570312 198.40625 1276.675781 198.246094 1276.75 198.070312 C 1276.824219 197.890625 1276.863281 197.707031 1276.863281 197.511719 C 1276.863281 197.320312 1276.824219 197.132812 1276.75 196.957031 C 1276.675781 196.777344 1276.570312 196.621094 1276.433594 196.484375 C 1276.300781 196.347656 1276.140625 196.242188 1275.964844 196.167969 C 1275.785156 196.09375 1275.597656 196.054688 1275.40625 196.054688 L 1227.851562 196.054688 L 1227.851562 149.957031 L 1275.40625 149.957031 C 1275.597656 149.957031 1275.785156 149.917969 1275.964844 149.84375 C 1276.140625 149.769531 1276.300781 149.664062 1276.433594 149.53125 C 1276.570312 149.394531 1276.675781 149.234375 1276.75 149.058594 C 1276.824219 148.878906 1276.863281 148.691406 1276.863281 148.5 C 1276.863281 148.308594 1276.824219 148.121094 1276.75 147.941406 C 1276.675781 147.765625 1276.570312 147.605469 1276.433594 147.46875 C 1276.300781 147.335938 1276.140625 147.230469 1275.964844 147.15625 C 1275.785156 147.082031 1275.597656 147.042969 1275.40625 147.042969 L 1227.851562 147.042969 L 1227.851562 100.945312 Z M 1224.9375 51.925781 L 1224.9375 98.03125 L 1178.832031 98.03125 L 1178.832031 51.925781 Z M 1175.917969 51.925781 L 1175.917969 98.03125 L 1129.816406 98.03125 L 1129.816406 51.925781 Z M 1126.90625 149.957031 L 1126.90625 196.054688 L 1080.804688 196.054688 L 1080.804688 149.957031 Z M 1080.804688 147.042969 L 1080.804688 100.945312 L 1126.90625 100.945312 L 1126.90625 147.042969 Z M 1129.816406 149.957031 L 1175.917969 149.957031 L 1175.917969 196.054688 L 1129.816406 196.054688 Z M 1129.816406 147.042969 L 1129.816406 100.945312 L 1175.917969 100.945312 L 1175.917969 147.042969 Z M 1126.90625 51.925781 L 1126.90625 98.03125 L 1080.804688 98.03125 L 1080.804688 51.925781 Z M 1031.785156 51.925781 L 1077.894531 51.925781 L 1077.894531 98.03125 L 1031.785156 98.03125 Z M 1031.785156 100.945312 L 1077.894531 100.945312 L 1077.894531 147.042969 L 1031.785156 147.042969 Z M 1031.785156 149.957031 L 1077.894531 149.957031 L 1077.894531 196.054688 L 1031.785156 196.054688 Z M 1031.785156 245.074219 L 1031.785156 198.96875 L 1077.894531 198.96875 L 1077.894531 245.074219 Z M 1080.804688 245.074219 L 1080.804688 198.96875 L 1126.90625 198.96875 L 1126.90625 245.074219 Z M 1129.816406 245.074219 L 1129.816406 198.96875 L 1175.917969 198.96875 L 1175.917969 245.074219 Z M 1224.9375 245.074219 L 1178.832031 245.074219 L 1178.832031 198.96875 L 1224.9375 198.96875 Z M 1224.9375 196.054688 L 1178.832031 196.054688 L 1178.832031 149.957031 L 1224.9375 149.957031 Z M 1224.9375 147.042969 L 1178.832031 147.042969 L 1178.832031 100.945312 L 1224.9375 100.945312 Z M 1224.9375 147.042969 " fill-opacity="1" fill-rule="nonzero"/></g></svg>