<svg xmlns="http://www.w3.org/2000/svg" xmlns:xlink="http://www.w3.org/1999/xlink" width="1584" zoomAndPan="magnify" viewBox="0 0 1188 296.999993" height="396" preserveAspectRatio="xMidYMid meet" version="1.0"><path fill="#a6a6a6" d="M 592.335938 36.964844 C 591.695312 36.199219 590.421875 36.070312 589.652344 36.710938 C 553.398438 66 535.78125 52.058594 517.144531 37.222656 C 499.015625 22.765625 480.25 7.800781 444.890625 33.894531 C 444.636719 34.023438 444.378906 34.152344 444.253906 34.277344 C 407.996094 63.570312 390.382812 49.628906 371.742188 34.789062 C 352.722656 19.699219 333.0625 3.964844 294.382812 35.300781 C 294.253906 35.429688 294.128906 35.558594 294 35.8125 C 260.042969 61.523438 242.9375 47.964844 224.9375 33.511719 C 206.9375 19.058594 188.042969 4.09375 152.683594 30.1875 C 152.429688 30.3125 152.171875 30.441406 151.917969 30.570312 C 115.664062 59.859375 98.046875 45.917969 79.410156 31.082031 C 60.132812 15.605469 40.472656 0 1.921875 31.210938 C 1.15625 31.847656 1.027344 33.128906 1.664062 33.894531 C 2.304688 34.664062 3.578125 34.789062 4.347656 34.152344 C 40.601562 4.859375 58.21875 18.800781 76.855469 33.640625 C 87.832031 42.335938 98.941406 51.289062 113.875 51.289062 C 123.707031 51.289062 135.195312 47.453125 149.238281 37.09375 C 149.492188 36.964844 149.746094 36.964844 150.003906 36.710938 C 186.257812 7.417969 203.875 21.359375 222.511719 36.199219 C 233.492188 44.894531 244.597656 53.847656 259.53125 53.847656 C 270.511719 53.847656 283.53125 48.988281 299.871094 35.8125 C 300 35.6875 300.128906 35.558594 300.253906 35.300781 C 334.210938 9.59375 351.316406 23.152344 369.316406 37.476562 C 380.296875 46.175781 391.402344 55.128906 406.339844 55.128906 C 416.167969 55.128906 427.53125 51.289062 441.699219 40.929688 C 441.953125 40.800781 442.210938 40.675781 442.335938 40.546875 C 478.59375 11.253906 496.210938 25.199219 514.847656 40.035156 C 525.824219 48.734375 536.929688 57.6875 551.867188 57.6875 C 562.847656 57.6875 575.867188 52.824219 592.207031 39.652344 C 592.84375 39.011719 592.972656 37.859375 592.335938 36.964844 Z M 592.335938 36.964844 " fill-opacity="1" fill-rule="nonzero"/></svg>